<svg width="89" height="36" viewBox="0 0 89 36" fill="none" xmlns="http://www.w3.org/2000/svg">
<path d="M18.4982 19.3108L17.9568 17.4276C17.7371 16.6115 17.5095 15.7719 17.274 14.9087C17.0386 14.0456 16.8111 13.1902 16.5914 12.3428H16.4972C16.2775 13.2059 16.05 14.0691 15.8146 14.9323C15.5948 15.7797 15.3672 16.6115 15.1319 17.4276L14.5905 19.3108H18.4982ZM19.1102 21.453H13.9784L12.7778 25.6197H10L14.9906 10.2241H18.1922L23.1828 25.6197H20.2873L19.1102 21.453ZM25.5839 9H28.3147V13.2844L28.2205 15.3089C28.7226 14.8381 29.2877 14.4693 29.9155 14.2025C30.5432 13.92 31.1709 13.7788 31.7986 13.7788C32.552 13.7788 33.219 13.92 33.7997 14.2025C34.3803 14.4693 34.8747 14.8616 35.2827 15.3795C35.6908 15.8817 35.9968 16.4938 36.2008 17.2157C36.4205 17.9376 36.5303 18.7458 36.5303 19.6404C36.5303 20.6291 36.3891 21.5158 36.1066 22.3005C35.8241 23.0694 35.4396 23.7207 34.953 24.2543C34.4823 24.7879 33.933 25.196 33.3053 25.4784C32.6932 25.7609 32.0577 25.9022 31.3985 25.9022C30.8493 25.9022 30.2764 25.7688 29.68 25.502C29.0837 25.2352 28.5344 24.8507 28.0321 24.3485H27.9614L27.726 25.6197H25.5837L25.5839 9ZM28.3147 22.6065C28.7384 22.9988 29.1778 23.2735 29.6329 23.4304C30.0881 23.5873 30.4961 23.6658 30.857 23.6658C31.6731 23.6658 32.3558 23.3362 32.9052 22.6771C33.4544 22.0023 33.729 21.0057 33.729 19.6874C33.729 18.5261 33.5171 17.6237 33.0934 16.9803C32.6697 16.3369 31.9869 16.0151 31.0453 16.0151C30.6059 16.0151 30.1587 16.125 29.7036 16.3447C29.2485 16.5644 28.7855 16.9175 28.3147 17.404V22.6065ZM39.0256 19.8522C39.0256 18.8949 39.1826 18.0396 39.4964 17.2863C39.826 16.533 40.2576 15.8974 40.7912 15.3795C41.3248 14.8616 41.9447 14.4693 42.6509 14.2025C43.3572 13.92 44.0868 13.7788 44.8401 13.7788C45.5934 13.7788 46.3232 13.92 47.0294 14.2025C47.7357 14.4693 48.3556 14.8616 48.8892 15.3795C49.4228 15.8974 49.8465 16.533 50.1604 17.2863C50.4899 18.0396 50.6547 18.8949 50.6547 19.8522C50.6547 20.8096 50.4899 21.6649 50.1604 22.4182C49.8465 23.1715 49.4228 23.8071 48.8892 24.325C48.3556 24.8429 47.7357 25.2352 47.0294 25.502C46.3232 25.7688 45.5934 25.9022 44.8401 25.9022C44.0868 25.9022 43.3572 25.7688 42.6509 25.502C41.9447 25.2352 41.3248 24.8429 40.7912 24.325C40.2576 23.8071 39.826 23.1715 39.4964 22.4182C39.1826 21.6649 39.0256 20.8096 39.0256 19.8522ZM41.8269 19.8522C41.8269 21.0136 42.0938 21.9473 42.6274 22.6535C43.161 23.3441 43.8985 23.6894 44.8401 23.6894C45.7817 23.6894 46.5194 23.3441 47.053 22.6535C47.5866 21.9473 47.8533 21.0136 47.8533 19.8522C47.8533 18.6752 47.5866 17.7414 47.053 17.0509C46.5194 16.3447 45.7817 15.9916 44.8401 15.9916C43.8985 15.9916 43.161 16.3447 42.6274 17.0509C42.0938 17.7414 41.8269 18.6752 41.8269 19.8522ZM64.0257 25.6197H61.8129L61.601 23.7835H61.5069C60.9576 24.427 60.3534 24.9448 59.6943 25.3372C59.0351 25.7138 58.2739 25.9022 57.4108 25.9022C56.0612 25.9022 55.0803 25.502 54.4683 24.7016C53.8562 23.8855 53.5502 22.7242 53.5502 21.2176V14.0612H56.2574V20.8645C56.2574 21.8061 56.4143 22.4966 56.7281 22.9361C57.0577 23.3598 57.6228 23.5716 58.4231 23.5716C58.9724 23.5716 59.4589 23.4461 59.8826 23.195C60.322 22.9439 60.8006 22.4966 61.3185 21.8532V14.0612H64.0257V25.6197ZM70.4994 16.2035H67.4156V14.1789L70.6171 14.0612L70.9701 10.9068H73.2066V14.0612H78.4562V16.2035H73.2066V20.9586C73.2066 21.916 73.4027 22.6222 73.795 23.0773C74.1874 23.5167 74.878 23.7364 75.8667 23.7364C76.3689 23.7364 76.8239 23.6972 77.2319 23.6187C77.6557 23.5246 78.056 23.4068 78.4326 23.2656L78.9269 25.243C78.4247 25.4156 77.8519 25.5648 77.2084 25.6903C76.5807 25.8316 75.9138 25.9022 75.2076 25.9022C74.3287 25.9022 73.591 25.7845 72.9947 25.5491C72.3984 25.3137 71.9119 24.9841 71.5352 24.5603C71.1742 24.1209 70.9075 23.5952 70.7348 22.9831C70.5779 22.3711 70.4994 21.6962 70.4994 20.9586V16.2035Z" fill="white"/>
</svg>
