<svg width="648" height="270" viewBox="0 0 648 270" fill="none" xmlns="http://www.w3.org/2000/svg">
<path d="M27.688 46.4H94.248L95.528 71.744H93.224C89.64 63.1253 85.8853 57.2373 81.96 54.08C78.0347 50.8373 72.2747 49.216 64.68 49.216H60.2V88.768H64.552C68.5627 88.768 71.9333 87.2747 74.664 84.288C77.3947 81.216 79.3147 77.12 80.424 72H82.344V109.888H80.168C78.632 103.488 76.5413 98.9227 73.896 96.192C71.336 93.4613 67.7947 92.096 63.272 92.096H60.2V133.184H65.064C72.9147 133.184 79.5707 130.837 85.032 126.144C90.5787 121.451 94.376 115.435 96.424 108.096H98.984L97.96 136H27.688V133.184H35.24V49.216H27.688V46.4ZM148.907 78.656C145.75 78.656 142.976 80.704 140.587 84.8C138.198 88.896 137.003 93.76 137.003 99.392V133.696H146.091V136H106.155V133.696H113.195V77.376H106.155V75.072H137.003V87.36C138.112 83.008 140.246 79.68 143.403 77.376C146.56 74.9867 150.144 73.792 154.155 73.792C158.166 73.792 161.408 74.944 163.883 77.248C166.443 79.4667 167.723 82.6667 167.723 86.848C167.723 90.944 166.784 94.1013 164.907 96.32C163.03 98.5387 160.128 99.648 156.203 99.648C152.363 99.648 149.504 98.368 147.627 95.808C145.835 93.248 145.622 89.7067 146.987 85.184H151.595C153.728 80.832 152.832 78.656 148.907 78.656ZM212.282 78.656C209.125 78.656 206.351 80.704 203.962 84.8C201.573 88.896 200.378 93.76 200.378 99.392V133.696H209.466V136H169.53V133.696H176.57V77.376H169.53V75.072H200.378V87.36C201.487 83.008 203.621 79.68 206.778 77.376C209.935 74.9867 213.519 73.792 217.53 73.792C221.541 73.792 224.783 74.944 227.258 77.248C229.818 79.4667 231.098 82.6667 231.098 86.848C231.098 90.944 230.159 94.1013 228.282 96.32C226.405 98.5387 223.503 99.648 219.578 99.648C215.738 99.648 212.879 98.368 211.002 95.808C209.21 93.248 208.997 89.7067 210.362 85.184H214.97C217.103 80.832 216.207 78.656 212.282 78.656ZM273.624 110.784V99.904C273.624 91.6267 273.155 85.6107 272.216 81.856C271.363 78.016 269.315 76.096 266.072 76.096C264.195 76.096 262.659 76.6507 261.464 77.76C260.355 78.784 259.544 80.5333 259.032 83.008C258.264 86.848 257.88 92.6933 257.88 100.544V110.528C257.88 119.829 258.136 125.419 258.648 127.296C259.245 129.173 259.843 130.709 260.44 131.904C261.379 133.952 263.213 134.976 265.944 134.976C269.272 134.976 271.448 133.056 272.472 129.216C273.24 126.485 273.624 120.341 273.624 110.784ZM265.688 137.28C255.021 137.28 246.957 134.549 241.496 129.088C236.035 123.627 233.304 115.819 233.304 105.664C233.304 95.424 236.205 87.5733 242.008 82.112C247.896 76.5653 256.131 73.792 266.712 73.792C277.293 73.792 285.187 76.352 290.392 81.472C295.597 86.5067 298.2 94.2293 298.2 104.64C298.2 126.4 287.363 137.28 265.688 137.28ZM344.532 78.656C341.375 78.656 338.601 80.704 336.212 84.8C333.823 88.896 332.628 93.76 332.628 99.392V133.696H341.716V136H301.78V133.696H308.82V77.376H301.78V75.072H332.628V87.36C333.737 83.008 335.871 79.68 339.028 77.376C342.185 74.9867 345.769 73.792 349.78 73.792C353.791 73.792 357.033 74.944 359.508 77.248C362.068 79.4667 363.348 82.6667 363.348 86.848C363.348 90.944 362.409 94.1013 360.532 96.32C358.655 98.5387 355.753 99.648 351.828 99.648C347.988 99.648 345.129 98.368 343.252 95.808C341.46 93.248 341.247 89.7067 342.612 85.184H347.22C349.353 80.832 348.457 78.656 344.532 78.656ZM410.171 136V133.568H422.203V113.088H387.515V110.656L423.611 46.4H445.755V110.016H458.427V98.88H460.859V122.56H458.427V113.088H445.755V133.568H454.587V136H410.171ZM391.611 110.016H422.203V56.128L391.611 110.016ZM505.728 137.28C493.355 137.28 483.925 133.099 477.44 124.736C471.04 116.373 467.84 104.683 467.84 89.664C467.84 74.6453 471.296 63.4667 478.208 56.128C485.12 48.704 494.549 44.992 506.496 44.992C518.528 44.992 527.957 48.6613 534.784 56C541.696 63.3387 545.152 75.0293 545.152 91.072C545.152 107.115 541.696 118.848 534.784 126.272C527.872 133.611 518.187 137.28 505.728 137.28ZM494.08 86.336V97.728C494.08 106.005 494.123 111.851 494.208 115.264C494.379 118.677 494.848 122.219 495.616 125.888C496.384 129.557 497.621 131.947 499.328 133.056C501.035 134.08 503.04 134.592 505.344 134.592C507.648 134.592 509.355 134.464 510.464 134.208C511.659 133.952 512.683 133.44 513.536 132.672C514.475 131.819 515.243 131.008 515.84 130.24C516.437 129.387 516.907 128.107 517.248 126.4C517.675 124.693 518.016 123.115 518.272 121.664C518.528 120.213 518.699 118.08 518.784 115.264C518.955 109.803 519.04 104.299 519.04 98.752V87.488C519.04 70.7627 518.4 59.968 517.12 55.104C515.925 50.1547 512.427 47.68 506.624 47.68C500.821 47.68 497.28 50.1973 496 55.232C494.72 60.2667 494.08 70.6347 494.08 86.336ZM554.376 64.576C554.376 58.944 556.936 54.2933 562.056 50.624C567.176 46.8693 574.771 44.992 584.84 44.992C604.296 44.992 614.024 51.776 614.024 65.344C614.024 70.8907 611.72 75.4987 607.112 79.168C602.589 82.752 596.061 85.2693 587.528 86.72V86.976C598.109 87.744 605.917 90.2187 610.952 94.4C615.987 98.5813 618.504 104 618.504 110.656C618.504 118.848 615.176 125.333 608.52 130.112C601.949 134.891 592.776 137.28 581 137.28C576.392 137.28 572.083 136.768 568.072 135.744C564.147 134.72 560.605 132.715 557.448 129.728C554.376 126.656 552.84 123.029 552.84 118.848C552.84 114.667 553.821 111.424 555.784 109.12C557.832 106.816 560.605 105.664 564.104 105.664C567.603 105.664 570.376 106.603 572.424 108.48C574.472 110.272 575.496 112.448 575.496 115.008C575.496 117.483 575.155 119.616 574.472 121.408H570.504C569.992 122.773 569.736 124.181 569.736 125.632C569.736 131.691 573.32 134.72 580.488 134.72C585.523 134.72 588.936 132.8 590.728 128.96C592.605 125.12 593.544 119.573 593.544 112.32C593.544 105.067 592.648 99.8187 590.856 96.576C589.149 93.248 586.589 90.7307 583.176 89.024C580.104 89.7067 576.392 90.2613 572.04 90.688L571.656 87.872C579.165 87.104 584.072 85.312 586.376 82.496C588.765 79.68 589.96 74.688 589.96 67.52C589.96 60.2667 589.235 55.104 587.784 52.032C586.419 48.8747 584.072 47.296 580.744 47.296C577.416 47.296 575.027 48.32 573.576 50.368C572.211 52.3307 571.528 54.208 571.528 56C571.528 57.792 571.784 59.3707 572.296 60.736H576.008C576.691 62.528 577.032 64.704 577.032 67.264C577.032 69.7387 575.965 71.9147 573.832 73.792C571.699 75.584 568.883 76.48 565.384 76.48C561.885 76.48 559.155 75.3707 557.192 73.152C555.315 70.848 554.376 67.9893 554.376 64.576Z" fill="url(#paint0_linear_63_6)"/>
<path d="M9.6 231V173.784C9.6 170.776 10.016 168.312 10.848 166.392C11.744 164.408 12.96 162.936 14.496 161.976C16.096 161.016 17.984 160.536 20.16 160.536C21.12 160.536 22.176 160.664 23.328 160.92C24.48 161.176 25.536 161.56 26.496 162.072L25.536 164.376C23.552 163.608 21.696 163.224 19.968 163.224C17.408 163.224 15.52 164.184 14.304 166.104C13.088 168.024 12.48 170.712 12.48 174.168V231H9.6ZM2.88 187.8V185.496L9.6 185.112H23.424V187.8H2.88ZM48.786 232.152C45.138 232.152 41.746 231.224 38.61 229.368C35.538 227.448 33.074 224.696 31.218 221.112C29.362 217.528 28.434 213.208 28.434 208.152C28.434 203.032 29.362 198.68 31.218 195.096C33.074 191.448 35.538 188.696 38.61 186.84C41.746 184.92 45.138 183.96 48.786 183.96C52.434 183.96 55.794 184.92 58.866 186.84C61.938 188.696 64.402 191.448 66.258 195.096C68.178 198.68 69.138 203.032 69.138 208.152C69.138 213.208 68.178 217.528 66.258 221.112C64.402 224.696 61.938 227.448 58.866 229.368C55.794 231.224 52.434 232.152 48.786 232.152ZM48.786 229.464C52.05 229.464 54.994 228.568 57.618 226.776C60.242 224.984 62.29 222.488 63.762 219.288C65.298 216.088 66.066 212.376 66.066 208.152C66.066 203.928 65.298 200.216 63.762 197.016C62.29 193.752 60.242 191.224 57.618 189.432C54.994 187.576 52.05 186.648 48.786 186.648C45.522 186.648 42.578 187.576 39.954 189.432C37.394 191.224 35.346 193.752 33.81 197.016C32.274 200.216 31.506 203.928 31.506 208.152C31.506 212.376 32.274 216.088 33.81 219.288C35.346 222.488 37.394 224.984 39.954 226.776C42.578 228.568 45.522 229.464 48.786 229.464ZM83.5598 231V185.112H86.0558L86.4398 193.752H86.6318C88.1038 190.936 89.9278 188.6 92.1038 186.744C94.2798 184.888 96.8078 183.96 99.6877 183.96C100.456 183.96 101.192 184.024 101.896 184.152C102.6 184.28 103.336 184.536 104.104 184.92L103.144 187.416C102.568 187.224 101.992 187.096 101.416 187.032C100.904 186.904 100.2 186.84 99.3038 186.84C97.1918 186.84 94.9838 187.768 92.6798 189.624C90.3758 191.416 88.2958 194.584 86.4398 199.128V231H83.5598ZM129.992 232.152C127.816 232.152 125.48 231.64 122.984 230.616C120.552 229.528 118.216 228.12 115.976 226.392H115.784L115.4 231H112.904V161.688H115.784V182.232L115.592 191.448C118.024 189.4 120.616 187.64 123.368 186.168C126.184 184.696 129.032 183.96 131.911 183.96C136.072 183.96 139.496 184.92 142.184 186.84C144.936 188.76 146.984 191.48 148.328 195C149.672 198.52 150.344 202.648 150.344 207.384C150.344 212.568 149.384 217.016 147.464 220.728C145.608 224.376 143.144 227.192 140.072 229.176C137 231.16 133.64 232.152 129.992 232.152ZM130.184 229.464C133.512 229.464 136.456 228.536 139.016 226.68C141.576 224.76 143.592 222.136 145.064 218.808C146.536 215.48 147.272 211.672 147.272 207.384C147.272 203.48 146.76 199.96 145.736 196.824C144.712 193.688 143.048 191.224 140.744 189.432C138.504 187.576 135.496 186.648 131.72 186.648C129.352 186.648 126.824 187.352 124.136 188.76C121.448 190.104 118.664 192.088 115.784 194.712V223.128C118.472 225.432 121.096 227.064 123.656 228.024C126.216 228.984 128.392 229.464 130.184 229.464ZM164.56 231V185.112H167.44V231H164.56ZM165.904 173.4C165.072 173.4 164.336 173.08 163.696 172.44C163.12 171.8 162.832 170.968 162.832 169.944C162.832 168.984 163.12 168.216 163.696 167.64C164.336 167 165.072 166.68 165.904 166.68C166.8 166.68 167.536 167 168.112 167.64C168.688 168.216 168.976 168.984 168.976 169.944C168.976 170.968 168.688 171.8 168.112 172.44C167.536 173.08 166.8 173.4 165.904 173.4ZM200.817 232.152C195.057 232.152 190.449 230.104 186.993 226.008C183.537 221.848 181.809 215.896 181.809 208.152C181.809 203.224 182.737 198.968 184.593 195.384C186.513 191.736 189.009 188.92 192.081 186.936C195.217 184.952 198.641 183.96 202.353 183.96C205.169 183.96 207.633 184.472 209.745 185.496C211.921 186.456 214.193 187.864 216.561 189.72L216.369 181.08V161.688H219.249V231H216.753L216.369 224.856H216.177C214.257 226.776 212.017 228.472 209.457 229.944C206.897 231.416 204.017 232.152 200.817 232.152ZM201.009 229.464C203.697 229.464 206.289 228.76 208.785 227.352C211.281 225.944 213.809 223.96 216.369 221.4V192.984C213.809 190.68 211.409 189.048 209.169 188.088C206.929 187.128 204.593 186.648 202.161 186.648C198.897 186.648 195.953 187.608 193.329 189.528C190.769 191.448 188.721 194.04 187.185 197.304C185.649 200.568 184.881 204.184 184.881 208.152C184.881 214.488 186.257 219.64 189.009 223.608C191.825 227.512 195.825 229.464 201.009 229.464ZM252.661 232.152C246.901 232.152 242.293 230.104 238.837 226.008C235.381 221.848 233.653 215.896 233.653 208.152C233.653 203.224 234.581 198.968 236.437 195.384C238.357 191.736 240.853 188.92 243.925 186.936C247.061 184.952 250.485 183.96 254.197 183.96C257.013 183.96 259.477 184.472 261.589 185.496C263.765 186.456 266.037 187.864 268.405 189.72L268.213 181.08V161.688H271.093V231H268.597L268.213 224.856H268.021C266.101 226.776 263.861 228.472 261.301 229.944C258.741 231.416 255.861 232.152 252.661 232.152ZM252.853 229.464C255.541 229.464 258.133 228.76 260.629 227.352C263.125 225.944 265.653 223.96 268.213 221.4V192.984C265.653 190.68 263.253 189.048 261.013 188.088C258.773 187.128 256.437 186.648 254.005 186.648C250.741 186.648 247.797 187.608 245.173 189.528C242.613 191.448 240.565 194.04 239.029 197.304C237.493 200.568 236.725 204.184 236.725 208.152C236.725 214.488 238.101 219.64 240.853 223.608C243.669 227.512 247.669 229.464 252.853 229.464ZM306.425 232.152C302.585 232.152 299.065 231.192 295.865 229.272C292.729 227.352 290.201 224.6 288.281 221.016C286.425 217.432 285.497 213.144 285.497 208.152C285.497 203.16 286.425 198.872 288.281 195.288C290.201 191.64 292.665 188.856 295.673 186.936C298.681 184.952 301.881 183.96 305.273 183.96C308.793 183.96 311.833 184.792 314.393 186.456C317.017 188.056 319.033 190.424 320.441 193.56C321.849 196.696 322.553 200.536 322.553 205.08C322.553 205.528 322.553 206.008 322.553 206.52C322.553 207.032 322.489 207.576 322.361 208.152H287.033V205.464H319.673C319.673 199.128 318.361 194.424 315.737 191.352C313.113 188.216 309.625 186.648 305.273 186.648C302.585 186.648 299.961 187.448 297.401 189.048C294.841 190.584 292.729 192.952 291.065 196.152C289.401 199.288 288.569 203.224 288.569 207.96C288.569 212.312 289.337 216.12 290.873 219.384C292.473 222.584 294.649 225.08 297.401 226.872C300.153 228.6 303.225 229.464 306.617 229.464C309.241 229.464 311.609 229.112 313.721 228.408C315.833 227.704 317.689 226.776 319.289 225.624L320.633 227.736C318.905 228.888 316.953 229.912 314.777 230.808C312.665 231.704 309.881 232.152 306.425 232.152ZM335.372 231V185.112H337.868L338.252 192.408H338.444C340.876 189.976 343.34 187.96 345.836 186.36C348.396 184.76 351.244 183.96 354.38 183.96C359.116 183.96 362.604 185.4 364.844 188.28C367.084 191.096 368.204 195.48 368.204 201.432V231H365.324V201.816C365.324 196.696 364.46 192.888 362.732 190.392C361.004 187.896 358.156 186.648 354.188 186.648C351.308 186.648 348.684 187.416 346.316 188.952C343.948 190.488 341.26 192.792 338.252 195.864V231H335.372ZM414.914 232.152C412.546 232.152 410.338 231.736 408.29 230.904C406.306 230.008 404.706 228.664 403.49 226.872C402.274 225.016 401.666 222.648 401.666 219.768C401.666 214.648 404.098 210.776 408.962 208.152C413.826 205.464 421.442 203.544 431.81 202.392C431.874 199.896 431.618 197.432 431.042 195C430.53 192.568 429.442 190.584 427.778 189.048C426.114 187.448 423.682 186.648 420.482 186.648C417.218 186.648 414.274 187.288 411.65 188.568C409.026 189.784 406.978 190.936 405.506 192.024L403.97 189.912C404.93 189.144 406.242 188.312 407.906 187.416C409.57 186.456 411.49 185.656 413.666 185.016C415.842 184.312 418.178 183.96 420.674 183.96C424.258 183.96 427.074 184.76 429.122 186.36C431.17 187.96 432.61 190.072 433.442 192.696C434.274 195.32 434.69 198.168 434.69 201.24V231H432.194L431.81 224.856H431.618C429.25 226.776 426.626 228.472 423.746 229.944C420.93 231.416 417.986 232.152 414.914 232.152ZM415.106 229.464C417.922 229.464 420.642 228.792 423.266 227.448C425.89 226.104 428.738 224.152 431.81 221.592V204.888C425.09 205.656 419.746 206.712 415.778 208.056C411.874 209.336 409.058 210.936 407.33 212.856C405.602 214.776 404.738 217.048 404.738 219.672C404.738 223.192 405.762 225.72 407.81 227.256C409.922 228.728 412.354 229.464 415.106 229.464ZM468.322 232.152C464.418 232.152 460.898 231.224 457.762 229.368C454.69 227.448 452.258 224.696 450.466 221.112C448.674 217.528 447.778 213.208 447.778 208.152C447.778 203.032 448.738 198.68 450.658 195.096C452.578 191.448 455.074 188.696 458.146 186.84C461.282 184.92 464.674 183.96 468.322 183.96C471.522 183.96 474.178 184.504 476.29 185.592C478.402 186.68 480.226 188.056 481.762 189.72L480.034 191.448C478.626 189.976 476.93 188.824 474.946 187.992C473.026 187.096 470.818 186.648 468.322 186.648C465.058 186.648 462.114 187.576 459.49 189.432C456.866 191.224 454.754 193.752 453.154 197.016C451.618 200.216 450.85 203.928 450.85 208.152C450.85 212.376 451.554 216.088 452.962 219.288C454.434 222.488 456.482 224.984 459.106 226.776C461.73 228.568 464.802 229.464 468.322 229.464C470.946 229.464 473.346 228.984 475.522 228.024C477.762 227 479.65 225.688 481.186 224.088L482.914 225.816C480.994 227.736 478.818 229.272 476.386 230.424C474.018 231.576 471.33 232.152 468.322 232.152ZM509.666 232.152C505.762 232.152 502.242 231.224 499.106 229.368C496.034 227.448 493.602 224.696 491.81 221.112C490.018 217.528 489.122 213.208 489.122 208.152C489.122 203.032 490.082 198.68 492.002 195.096C493.922 191.448 496.418 188.696 499.49 186.84C502.626 184.92 506.018 183.96 509.666 183.96C512.866 183.96 515.522 184.504 517.634 185.592C519.746 186.68 521.57 188.056 523.106 189.72L521.378 191.448C519.97 189.976 518.274 188.824 516.29 187.992C514.37 187.096 512.162 186.648 509.666 186.648C506.402 186.648 503.458 187.576 500.834 189.432C498.21 191.224 496.098 193.752 494.498 197.016C492.962 200.216 492.194 203.928 492.194 208.152C492.194 212.376 492.898 216.088 494.306 219.288C495.778 222.488 497.826 224.984 500.45 226.776C503.074 228.568 506.146 229.464 509.666 229.464C512.29 229.464 514.69 228.984 516.866 228.024C519.106 227 520.994 225.688 522.53 224.088L524.258 225.816C522.338 227.736 520.162 229.272 517.73 230.424C515.362 231.576 512.674 232.152 509.666 232.152ZM551.393 232.152C547.553 232.152 544.033 231.192 540.833 229.272C537.697 227.352 535.169 224.6 533.249 221.016C531.393 217.432 530.465 213.144 530.465 208.152C530.465 203.16 531.393 198.872 533.249 195.288C535.169 191.64 537.633 188.856 540.641 186.936C543.649 184.952 546.849 183.96 550.241 183.96C553.761 183.96 556.801 184.792 559.361 186.456C561.985 188.056 564.001 190.424 565.409 193.56C566.817 196.696 567.521 200.536 567.521 205.08C567.521 205.528 567.521 206.008 567.521 206.52C567.521 207.032 567.457 207.576 567.329 208.152H532.001V205.464H564.641C564.641 199.128 563.329 194.424 560.705 191.352C558.081 188.216 554.593 186.648 550.241 186.648C547.553 186.648 544.929 187.448 542.369 189.048C539.809 190.584 537.697 192.952 536.033 196.152C534.369 199.288 533.537 203.224 533.537 207.96C533.537 212.312 534.305 216.12 535.841 219.384C537.441 222.584 539.617 225.08 542.369 226.872C545.121 228.6 548.193 229.464 551.585 229.464C554.209 229.464 556.577 229.112 558.689 228.408C560.801 227.704 562.657 226.776 564.257 225.624L565.601 227.736C563.873 228.888 561.921 229.912 559.745 230.808C557.633 231.704 554.849 232.152 551.393 232.152ZM591.093 232.152C587.445 232.152 584.213 231.576 581.397 230.424C578.645 229.272 576.309 227.736 574.389 225.816L576.117 223.896C578.037 225.496 580.117 226.84 582.357 227.928C584.661 228.952 587.637 229.464 591.285 229.464C595.125 229.464 598.037 228.472 600.021 226.488C602.005 224.504 602.997 222.232 602.997 219.672C602.997 217.624 602.389 215.928 601.173 214.584C600.021 213.24 598.549 212.12 596.757 211.224C595.029 210.328 593.269 209.56 591.477 208.92C589.109 208.088 586.805 207.16 584.565 206.136C582.325 205.112 580.469 203.8 578.997 202.2C577.589 200.6 576.885 198.488 576.885 195.864C576.885 192.664 578.101 189.88 580.533 187.512C583.029 185.144 586.613 183.96 591.285 183.96C593.781 183.96 596.117 184.408 598.293 185.304C600.469 186.136 602.357 187.224 603.957 188.568L602.229 190.488C600.693 189.4 599.061 188.504 597.333 187.8C595.605 187.032 593.525 186.648 591.093 186.648C587.253 186.648 584.437 187.608 582.645 189.528C580.853 191.384 579.957 193.432 579.957 195.672C579.957 197.528 580.469 199.064 581.493 200.28C582.517 201.432 583.829 202.424 585.429 203.256C587.093 204.024 588.853 204.76 590.709 205.464C593.141 206.424 595.541 207.416 597.909 208.44C600.277 209.4 602.229 210.744 603.765 212.472C605.301 214.136 606.069 216.472 606.069 219.48C606.069 221.72 605.493 223.8 604.341 225.72C603.189 227.64 601.493 229.208 599.253 230.424C597.013 231.576 594.293 232.152 591.093 232.152ZM629.531 232.152C625.883 232.152 622.651 231.576 619.835 230.424C617.083 229.272 614.747 227.736 612.827 225.816L614.555 223.896C616.475 225.496 618.555 226.84 620.795 227.928C623.099 228.952 626.075 229.464 629.723 229.464C633.563 229.464 636.475 228.472 638.459 226.488C640.443 224.504 641.435 222.232 641.435 219.672C641.435 217.624 640.827 215.928 639.611 214.584C638.459 213.24 636.987 212.12 635.195 211.224C633.467 210.328 631.707 209.56 629.915 208.92C627.547 208.088 625.243 207.16 623.003 206.136C620.763 205.112 618.907 203.8 617.435 202.2C616.027 200.6 615.323 198.488 615.323 195.864C615.323 192.664 616.539 189.88 618.971 187.512C621.467 185.144 625.051 183.96 629.723 183.96C632.219 183.96 634.555 184.408 636.731 185.304C638.907 186.136 640.795 187.224 642.395 188.568L640.667 190.488C639.131 189.4 637.499 188.504 635.771 187.8C634.043 187.032 631.963 186.648 629.531 186.648C625.691 186.648 622.875 187.608 621.083 189.528C619.291 191.384 618.395 193.432 618.395 195.672C618.395 197.528 618.907 199.064 619.931 200.28C620.955 201.432 622.267 202.424 623.867 203.256C625.531 204.024 627.291 204.76 629.147 205.464C631.579 206.424 633.979 207.416 636.347 208.44C638.715 209.4 640.667 210.744 642.203 212.472C643.739 214.136 644.507 216.472 644.507 219.48C644.507 221.72 643.931 223.8 642.779 225.72C641.627 227.64 639.931 229.208 637.691 230.424C635.451 231.576 632.731 232.152 629.531 232.152Z" fill="url(#paint1_linear_63_6)"/>
<defs>
<linearGradient id="paint0_linear_63_6" x1="55.5608" y1="86" x2="806.302" y2="219.784" gradientUnits="userSpaceOnUse">
<stop/>
<stop offset="1" stop-color="#4A4949"/>
</linearGradient>
<linearGradient id="paint1_linear_63_6" x1="33.116" y1="201.104" x2="825.355" y2="394.287" gradientUnits="userSpaceOnUse">
<stop/>
<stop offset="1" stop-color="#202020"/>
</linearGradient>
</defs>
</svg>
