<svg width="609" height="260" viewBox="0 0 609 260" fill="none" xmlns="http://www.w3.org/2000/svg">
<path d="M2.688 46.4H69.248L70.528 71.744H68.224C64.64 63.1253 60.8853 57.2373 56.96 54.08C53.0347 50.8373 47.2747 49.216 39.68 49.216H35.2V88.768H39.552C43.5627 88.768 46.9333 87.2747 49.664 84.288C52.3947 81.216 54.3147 77.12 55.424 72H57.344V109.888H55.168C53.632 103.488 51.5413 98.9227 48.896 96.192C46.336 93.4613 42.7947 92.096 38.272 92.096H35.2V133.184H40.064C47.9147 133.184 54.5707 130.837 60.032 126.144C65.5787 121.451 69.376 115.435 71.424 108.096H73.984L72.96 136H2.688V133.184H10.24V49.216H2.688V46.4ZM123.907 78.656C120.75 78.656 117.976 80.704 115.587 84.8C113.198 88.896 112.003 93.76 112.003 99.392V133.696H121.091V136H81.155V133.696H88.195V77.376H81.155V75.072H112.003V87.36C113.112 83.008 115.246 79.68 118.403 77.376C121.56 74.9867 125.144 73.792 129.155 73.792C133.166 73.792 136.408 74.944 138.883 77.248C141.443 79.4667 142.723 82.6667 142.723 86.848C142.723 90.944 141.784 94.1013 139.907 96.32C138.03 98.5387 135.128 99.648 131.203 99.648C127.363 99.648 124.504 98.368 122.627 95.808C120.835 93.248 120.622 89.7067 121.987 85.184H126.595C128.728 80.832 127.832 78.656 123.907 78.656ZM187.282 78.656C184.125 78.656 181.351 80.704 178.962 84.8C176.573 88.896 175.378 93.76 175.378 99.392V133.696H184.466V136H144.53V133.696H151.57V77.376H144.53V75.072H175.378V87.36C176.487 83.008 178.621 79.68 181.778 77.376C184.935 74.9867 188.519 73.792 192.53 73.792C196.541 73.792 199.783 74.944 202.258 77.248C204.818 79.4667 206.098 82.6667 206.098 86.848C206.098 90.944 205.159 94.1013 203.282 96.32C201.405 98.5387 198.503 99.648 194.578 99.648C190.738 99.648 187.879 98.368 186.002 95.808C184.21 93.248 183.997 89.7067 185.362 85.184H189.97C192.103 80.832 191.207 78.656 187.282 78.656ZM248.624 110.784V99.904C248.624 91.6267 248.155 85.6107 247.216 81.856C246.363 78.016 244.315 76.096 241.072 76.096C239.195 76.096 237.659 76.6507 236.464 77.76C235.355 78.784 234.544 80.5333 234.032 83.008C233.264 86.848 232.88 92.6933 232.88 100.544V110.528C232.88 119.829 233.136 125.419 233.648 127.296C234.245 129.173 234.843 130.709 235.44 131.904C236.379 133.952 238.213 134.976 240.944 134.976C244.272 134.976 246.448 133.056 247.472 129.216C248.24 126.485 248.624 120.341 248.624 110.784ZM240.688 137.28C230.021 137.28 221.957 134.549 216.496 129.088C211.035 123.627 208.304 115.819 208.304 105.664C208.304 95.424 211.205 87.5733 217.008 82.112C222.896 76.5653 231.131 73.792 241.712 73.792C252.293 73.792 260.187 76.352 265.392 81.472C270.597 86.5067 273.2 94.2293 273.2 104.64C273.2 126.4 262.363 137.28 240.688 137.28ZM319.532 78.656C316.375 78.656 313.601 80.704 311.212 84.8C308.823 88.896 307.628 93.76 307.628 99.392V133.696H316.716V136H276.78V133.696H283.82V77.376H276.78V75.072H307.628V87.36C308.737 83.008 310.871 79.68 314.028 77.376C317.185 74.9867 320.769 73.792 324.78 73.792C328.791 73.792 332.033 74.944 334.508 77.248C337.068 79.4667 338.348 82.6667 338.348 86.848C338.348 90.944 337.409 94.1013 335.532 96.32C333.655 98.5387 330.753 99.648 326.828 99.648C322.988 99.648 320.129 98.368 318.252 95.808C316.46 93.248 316.247 89.7067 317.612 85.184H322.22C324.353 80.832 323.457 78.656 319.532 78.656ZM385.171 136V133.568H397.203V113.088H362.515V110.656L398.611 46.4H420.755V110.016H433.427V98.88H435.859V122.56H433.427V113.088H420.755V133.568H429.587V136H385.171ZM366.611 110.016H397.203V56.128L366.611 110.016ZM480.728 137.28C468.355 137.28 458.925 133.099 452.44 124.736C446.04 116.373 442.84 104.683 442.84 89.664C442.84 74.6453 446.296 63.4667 453.208 56.128C460.12 48.704 469.549 44.992 481.496 44.992C493.528 44.992 502.957 48.6613 509.784 56C516.696 63.3387 520.152 75.0293 520.152 91.072C520.152 107.115 516.696 118.848 509.784 126.272C502.872 133.611 493.187 137.28 480.728 137.28ZM469.08 86.336V97.728C469.08 106.005 469.123 111.851 469.208 115.264C469.379 118.677 469.848 122.219 470.616 125.888C471.384 129.557 472.621 131.947 474.328 133.056C476.035 134.08 478.04 134.592 480.344 134.592C482.648 134.592 484.355 134.464 485.464 134.208C486.659 133.952 487.683 133.44 488.536 132.672C489.475 131.819 490.243 131.008 490.84 130.24C491.437 129.387 491.907 128.107 492.248 126.4C492.675 124.693 493.016 123.115 493.272 121.664C493.528 120.213 493.699 118.08 493.784 115.264C493.955 109.803 494.04 104.299 494.04 98.752V87.488C494.04 70.7627 493.4 59.968 492.12 55.104C490.925 50.1547 487.427 47.68 481.624 47.68C475.821 47.68 472.28 50.1973 471 55.232C469.72 60.2667 469.08 70.6347 469.08 86.336ZM565.728 137.28C553.355 137.28 543.925 133.099 537.44 124.736C531.04 116.373 527.84 104.683 527.84 89.664C527.84 74.6453 531.296 63.4667 538.208 56.128C545.12 48.704 554.549 44.992 566.496 44.992C578.528 44.992 587.957 48.6613 594.784 56C601.696 63.3387 605.152 75.0293 605.152 91.072C605.152 107.115 601.696 118.848 594.784 126.272C587.872 133.611 578.187 137.28 565.728 137.28ZM554.08 86.336V97.728C554.08 106.005 554.123 111.851 554.208 115.264C554.379 118.677 554.848 122.219 555.616 125.888C556.384 129.557 557.621 131.947 559.328 133.056C561.035 134.08 563.04 134.592 565.344 134.592C567.648 134.592 569.355 134.464 570.464 134.208C571.659 133.952 572.683 133.44 573.536 132.672C574.475 131.819 575.243 131.008 575.84 130.24C576.437 129.387 576.907 128.107 577.248 126.4C577.675 124.693 578.016 123.115 578.272 121.664C578.528 120.213 578.699 118.08 578.784 115.264C578.955 109.803 579.04 104.299 579.04 98.752V87.488C579.04 70.7627 578.4 59.968 577.12 55.104C575.925 50.1547 572.427 47.68 566.624 47.68C560.821 47.68 557.28 50.1973 556 55.232C554.72 60.2667 554.08 70.6347 554.08 86.336Z" fill="url(#paint0_linear_65_2)"/>
<path d="M103.304 222.152C101.128 222.152 98.792 221.64 96.296 220.616C93.864 219.528 91.528 218.12 89.288 216.392H89.096L88.712 221H86.216V151.688H89.096V172.232L88.904 181.448C91.336 179.4 93.928 177.64 96.68 176.168C99.496 174.696 102.344 173.96 105.224 173.96C109.384 173.96 112.808 174.92 115.496 176.84C118.248 178.76 120.296 181.48 121.64 185C122.984 188.52 123.656 192.648 123.656 197.384C123.656 202.568 122.696 207.016 120.776 210.728C118.92 214.376 116.456 217.192 113.384 219.176C110.312 221.16 106.952 222.152 103.304 222.152ZM103.496 219.464C106.824 219.464 109.768 218.536 112.328 216.68C114.888 214.76 116.904 212.136 118.376 208.808C119.848 205.48 120.584 201.672 120.584 197.384C120.584 193.48 120.072 189.96 119.048 186.824C118.024 183.688 116.36 181.224 114.056 179.432C111.816 177.576 108.808 176.648 105.032 176.648C102.664 176.648 100.136 177.352 97.448 178.76C94.76 180.104 91.976 182.088 89.096 184.712V213.128C91.784 215.432 94.408 217.064 96.968 218.024C99.528 218.984 101.704 219.464 103.496 219.464ZM146.164 222.152C143.796 222.152 141.588 221.736 139.54 220.904C137.556 220.008 135.956 218.664 134.74 216.872C133.524 215.016 132.916 212.648 132.916 209.768C132.916 204.648 135.348 200.776 140.212 198.152C145.076 195.464 152.692 193.544 163.06 192.392C163.124 189.896 162.868 187.432 162.292 185C161.78 182.568 160.692 180.584 159.028 179.048C157.364 177.448 154.932 176.648 151.732 176.648C148.468 176.648 145.524 177.288 142.9 178.568C140.276 179.784 138.228 180.936 136.756 182.024L135.22 179.912C136.18 179.144 137.492 178.312 139.156 177.416C140.82 176.456 142.74 175.656 144.916 175.016C147.092 174.312 149.428 173.96 151.924 173.96C155.508 173.96 158.324 174.76 160.372 176.36C162.42 177.96 163.86 180.072 164.692 182.696C165.524 185.32 165.94 188.168 165.94 191.24V221H163.444L163.06 214.856H162.868C160.5 216.776 157.876 218.472 154.996 219.944C152.18 221.416 149.236 222.152 146.164 222.152ZM146.356 219.464C149.172 219.464 151.892 218.792 154.516 217.448C157.14 216.104 159.988 214.152 163.06 211.592V194.888C156.34 195.656 150.996 196.712 147.028 198.056C143.124 199.336 140.308 200.936 138.58 202.856C136.852 204.776 135.988 207.048 135.988 209.672C135.988 213.192 137.012 215.72 139.06 217.256C141.172 218.728 143.604 219.464 146.356 219.464ZM198.036 222.152C192.276 222.152 187.668 220.104 184.212 216.008C180.756 211.848 179.028 205.896 179.028 198.152C179.028 193.224 179.956 188.968 181.812 185.384C183.732 181.736 186.228 178.92 189.3 176.936C192.436 174.952 195.86 173.96 199.572 173.96C202.388 173.96 204.852 174.472 206.964 175.496C209.14 176.456 211.412 177.864 213.78 179.72L213.588 171.08V151.688H216.468V221H213.972L213.588 214.856H213.396C211.476 216.776 209.236 218.472 206.676 219.944C204.116 221.416 201.236 222.152 198.036 222.152ZM198.228 219.464C200.916 219.464 203.508 218.76 206.004 217.352C208.5 215.944 211.028 213.96 213.588 211.4V182.984C211.028 180.68 208.628 179.048 206.388 178.088C204.148 177.128 201.812 176.648 199.38 176.648C196.116 176.648 193.172 177.608 190.548 179.528C187.988 181.448 185.94 184.04 184.404 187.304C182.868 190.568 182.1 194.184 182.1 198.152C182.1 204.488 183.476 209.64 186.228 213.608C189.044 217.512 193.044 219.464 198.228 219.464ZM254.122 221V175.112H256.618L257.002 183.752H257.194C258.666 180.936 260.49 178.6 262.666 176.744C264.842 174.888 267.37 173.96 270.25 173.96C271.018 173.96 271.754 174.024 272.458 174.152C273.162 174.28 273.898 174.536 274.666 174.92L273.706 177.416C273.13 177.224 272.554 177.096 271.978 177.032C271.466 176.904 270.762 176.84 269.866 176.84C267.754 176.84 265.546 177.768 263.242 179.624C260.938 181.416 258.858 184.584 257.002 189.128V221H254.122ZM299.425 222.152C295.585 222.152 292.065 221.192 288.865 219.272C285.729 217.352 283.201 214.6 281.281 211.016C279.425 207.432 278.497 203.144 278.497 198.152C278.497 193.16 279.425 188.872 281.281 185.288C283.201 181.64 285.665 178.856 288.673 176.936C291.681 174.952 294.881 173.96 298.273 173.96C301.793 173.96 304.833 174.792 307.393 176.456C310.017 178.056 312.033 180.424 313.441 183.56C314.849 186.696 315.553 190.536 315.553 195.08C315.553 195.528 315.553 196.008 315.553 196.52C315.553 197.032 315.489 197.576 315.361 198.152H280.033V195.464H312.673C312.673 189.128 311.361 184.424 308.737 181.352C306.113 178.216 302.625 176.648 298.273 176.648C295.585 176.648 292.961 177.448 290.401 179.048C287.841 180.584 285.729 182.952 284.065 186.152C282.401 189.288 281.569 193.224 281.569 197.96C281.569 202.312 282.337 206.12 283.873 209.384C285.473 212.584 287.649 215.08 290.401 216.872C293.153 218.6 296.225 219.464 299.617 219.464C302.241 219.464 304.609 219.112 306.721 218.408C308.833 217.704 310.689 216.776 312.289 215.624L313.633 217.736C311.905 218.888 309.953 219.912 307.777 220.808C305.665 221.704 302.881 222.152 299.425 222.152ZM358.9 242.312V224.072L359.092 214.664C356.98 216.648 354.612 218.408 351.988 219.944C349.428 221.416 346.548 222.152 343.348 222.152C337.588 222.152 332.98 220.104 329.524 216.008C326.068 211.848 324.34 205.896 324.34 198.152C324.34 193.224 325.268 188.968 327.124 185.384C329.044 181.736 331.54 178.92 334.612 176.936C337.748 174.952 341.172 173.96 344.884 173.96C347.7 173.96 350.164 174.44 352.276 175.4C354.388 176.36 356.532 177.672 358.708 179.336H358.9L359.284 175.112H361.78V242.312H358.9ZM343.54 219.464C346.228 219.464 348.82 218.76 351.316 217.352C353.812 215.944 356.34 213.96 358.9 211.4V182.984C356.34 180.68 353.94 179.048 351.7 178.088C349.46 177.128 347.124 176.648 344.692 176.648C341.428 176.648 338.484 177.608 335.86 179.528C333.3 181.448 331.252 184.04 329.716 187.304C328.18 190.568 327.412 194.184 327.412 198.152C327.412 204.488 328.788 209.64 331.54 213.608C334.356 217.512 338.356 219.464 343.54 219.464ZM393.272 222.152C388.6 222.152 385.112 220.744 382.808 217.928C380.568 215.048 379.448 210.632 379.448 204.68V175.112H382.328V204.296C382.328 209.352 383.192 213.16 384.92 215.72C386.712 218.216 389.56 219.464 393.464 219.464C396.344 219.464 398.968 218.664 401.336 217.064C403.704 215.464 406.328 212.936 409.208 209.48V175.112H412.088V221H409.592L409.208 213.128H409.016C406.712 215.816 404.312 217.992 401.816 219.656C399.32 221.32 396.472 222.152 393.272 222.152ZM447.456 222.152C443.616 222.152 440.096 221.192 436.896 219.272C433.76 217.352 431.232 214.6 429.312 211.016C427.456 207.432 426.528 203.144 426.528 198.152C426.528 193.16 427.456 188.872 429.312 185.288C431.232 181.64 433.696 178.856 436.704 176.936C439.712 174.952 442.912 173.96 446.304 173.96C449.824 173.96 452.864 174.792 455.424 176.456C458.048 178.056 460.064 180.424 461.472 183.56C462.88 186.696 463.584 190.536 463.584 195.08C463.584 195.528 463.584 196.008 463.584 196.52C463.584 197.032 463.52 197.576 463.392 198.152H428.064V195.464H460.704C460.704 189.128 459.392 184.424 456.768 181.352C454.144 178.216 450.656 176.648 446.304 176.648C443.616 176.648 440.992 177.448 438.432 179.048C435.872 180.584 433.76 182.952 432.096 186.152C430.432 189.288 429.6 193.224 429.6 197.96C429.6 202.312 430.368 206.12 431.904 209.384C433.504 212.584 435.68 215.08 438.432 216.872C441.184 218.6 444.256 219.464 447.648 219.464C450.272 219.464 452.64 219.112 454.752 218.408C456.864 217.704 458.72 216.776 460.32 215.624L461.664 217.736C459.936 218.888 457.984 219.912 455.808 220.808C453.696 221.704 450.912 222.152 447.456 222.152ZM487.156 222.152C483.508 222.152 480.276 221.576 477.46 220.424C474.708 219.272 472.372 217.736 470.452 215.816L472.18 213.896C474.1 215.496 476.18 216.84 478.42 217.928C480.724 218.952 483.7 219.464 487.348 219.464C491.188 219.464 494.1 218.472 496.084 216.488C498.068 214.504 499.06 212.232 499.06 209.672C499.06 207.624 498.452 205.928 497.236 204.584C496.084 203.24 494.612 202.12 492.82 201.224C491.092 200.328 489.332 199.56 487.54 198.92C485.172 198.088 482.868 197.16 480.628 196.136C478.388 195.112 476.532 193.8 475.06 192.2C473.652 190.6 472.948 188.488 472.948 185.864C472.948 182.664 474.164 179.88 476.596 177.512C479.092 175.144 482.676 173.96 487.348 173.96C489.844 173.96 492.18 174.408 494.356 175.304C496.532 176.136 498.42 177.224 500.02 178.568L498.292 180.488C496.756 179.4 495.124 178.504 493.396 177.8C491.668 177.032 489.588 176.648 487.156 176.648C483.316 176.648 480.5 177.608 478.708 179.528C476.916 181.384 476.02 183.432 476.02 185.672C476.02 187.528 476.532 189.064 477.556 190.28C478.58 191.432 479.892 192.424 481.492 193.256C483.156 194.024 484.916 194.76 486.772 195.464C489.204 196.424 491.604 197.416 493.972 198.44C496.34 199.4 498.292 200.744 499.828 202.472C501.364 204.136 502.132 206.472 502.132 209.48C502.132 211.72 501.556 213.8 500.404 215.72C499.252 217.64 497.556 219.208 495.316 220.424C493.076 221.576 490.356 222.152 487.156 222.152ZM524.678 221.768C520.454 221.768 517.606 220.552 516.134 218.12C514.662 215.624 513.926 212.424 513.926 208.52V177.8H506.63V175.496L513.926 175.112L514.31 159.752H516.806V175.112H530.438V177.8H516.806V208.904C516.806 211.848 517.318 214.28 518.342 216.2C519.366 218.12 521.542 219.08 524.87 219.08C525.766 219.08 526.694 218.984 527.654 218.792C528.614 218.536 529.67 218.12 530.822 217.544L531.974 219.656C530.758 220.296 529.51 220.808 528.23 221.192C526.95 221.576 525.766 221.768 524.678 221.768Z" fill="url(#paint1_linear_65_2)"/>
<defs>
<linearGradient id="paint0_linear_65_2" x1="31.1229" y1="86" x2="794.801" y2="224.592" gradientUnits="userSpaceOnUse">
<stop/>
<stop offset="1" stop-color="#4A4949"/>
</linearGradient>
<linearGradient id="paint1_linear_65_2" x1="100.304" y1="191.104" x2="674.061" y2="289.557" gradientUnits="userSpaceOnUse">
<stop/>
<stop offset="1" stop-color="#202020"/>
</linearGradient>
</defs>
</svg>
