<svg width="85" height="36" viewBox="0 0 85 36" fill="none" xmlns="http://www.w3.org/2000/svg">
<path d="M66.5234 0H17.5099C7.83948 0 0 7.83942 0 17.5098C0 27.1803 7.83948 35.0197 17.5099 35.0197H66.5234C76.1938 35.0197 84.0332 27.1803 84.0332 17.5098C84.0332 7.83942 76.1938 0 66.5234 0Z" fill="url(#paint0_linear_56_69)"/>
<path d="M13 9H15.9436V15.6737H21.6276V9H24.5712V25.5955H21.6276V18.2366H15.9436V25.5955H13V9ZM27.7431 19.3785C27.7431 18.3466 27.9123 17.4246 28.2506 16.6126C28.6058 15.8006 29.0711 15.1154 29.6462 14.5572C30.2214 13.9989 30.8896 13.576 31.6509 13.2884C32.4122 12.9839 33.1988 12.8317 34.0108 12.8317C34.8228 12.8317 35.6095 12.9839 36.3707 13.2884C37.132 13.576 37.8001 13.9989 38.3753 14.5572C38.9505 15.1154 39.4074 15.8006 39.7457 16.6126C40.101 17.4246 40.2785 18.3466 40.2785 19.3785C40.2785 20.4105 40.101 21.3324 39.7457 22.1445C39.4074 22.9565 38.9505 23.6416 38.3753 24.1999C37.8001 24.7581 37.132 25.181 36.3707 25.4686C35.6095 25.7562 34.8228 25.9 34.0108 25.9C33.1988 25.9 32.4122 25.7562 31.6509 25.4686C30.8896 25.181 30.2214 24.7581 29.6462 24.1999C29.0711 23.6416 28.6058 22.9565 28.2506 22.1445C27.9123 21.3324 27.7431 20.4105 27.7431 19.3785ZM30.7627 19.3785C30.7627 20.6304 31.0503 21.6369 31.6254 22.3982C32.2007 23.1425 32.9958 23.5147 34.0108 23.5147C35.0258 23.5147 35.8209 23.1425 36.3961 22.3982C36.9713 21.6369 37.2588 20.6304 37.2588 19.3785C37.2588 18.1098 36.9713 17.1032 36.3961 16.3589C35.8209 15.5976 35.0258 15.2169 34.0108 15.2169C32.9958 15.2169 32.2007 15.5976 31.6254 16.3589C31.0503 17.1032 30.7627 18.1098 30.7627 19.3785ZM42.8414 13.1361H45.0492L45.2776 14.7348H45.3538C45.6414 14.1935 45.9882 13.7452 46.3942 13.3899C46.8171 13.0178 47.3839 12.8317 48.0944 12.8317C49.3124 12.8317 50.0736 13.5253 50.3781 14.9125C50.6658 14.3204 51.0296 13.8298 51.4694 13.4407C51.9261 13.0347 52.5012 12.8317 53.1948 12.8317C54.0745 12.8317 54.7513 13.1784 55.2249 13.872C55.7155 14.5487 55.9608 15.513 55.9608 16.7649V25.5955H53.1948V16.9932C53.1948 15.8936 52.8481 15.3438 52.1545 15.3438C51.8162 15.3438 51.5201 15.4707 51.2663 15.7244C51.0126 15.9782 50.7673 16.3673 50.5305 16.8917V25.5955H48.2466V16.9932C48.2466 15.8936 47.8914 15.3438 47.1809 15.3438C46.8425 15.3438 46.555 15.4707 46.3182 15.7244C46.0813 15.9782 45.8444 16.3673 45.6076 16.8917V25.5955H42.8417L42.8414 13.1361ZM58.422 19.3785C58.422 18.3635 58.5997 17.45 58.955 16.638C59.3271 15.826 59.8093 15.1408 60.4014 14.5826C60.9935 14.0074 61.6701 13.576 62.4314 13.2884C63.2095 12.9839 64.0046 12.8317 64.8166 12.8317C65.7471 12.8317 66.5675 12.9839 67.278 13.2884C68.0055 13.576 68.6145 13.982 69.1051 14.5064C69.5956 15.0139 69.9678 15.6314 70.2216 16.3589C70.4753 17.0863 70.6023 17.8814 70.6023 18.7441C70.6023 19.0317 70.5854 19.294 70.5517 19.5308C70.5346 19.7676 70.5091 19.9622 70.4754 20.1144H61.4164C61.5517 21.2479 62 22.1191 62.7613 22.7281C63.5225 23.3371 64.4699 23.6416 65.6033 23.6416C66.2462 23.6416 66.8468 23.557 67.405 23.3878C67.9633 23.2018 68.53 22.948 69.1052 22.6266L70.0948 24.4536C69.4181 24.8765 68.6653 25.2233 67.8364 25.494C67.0075 25.7647 66.1363 25.9 65.2228 25.9C64.2754 25.9 63.3872 25.7562 62.5582 25.4686C61.7293 25.1641 61.0104 24.7328 60.4014 24.1745C59.7923 23.6162 59.3103 22.9396 58.9551 22.1445C58.5998 21.3324 58.422 20.4105 58.422 19.3785ZM67.9123 18.262C67.9123 17.2639 67.6587 16.4857 67.1512 15.9275C66.6437 15.3692 65.8908 15.0901 64.8927 15.0901C64.4698 15.0901 64.0638 15.1577 63.6747 15.2931C63.2857 15.4284 62.9304 15.6314 62.609 15.9021C62.3045 16.1727 62.0422 16.5027 61.8223 16.8917C61.6024 17.2808 61.4586 17.7376 61.3909 18.262H67.9123Z" fill="#161616"/>
<defs>
<linearGradient id="paint0_linear_56_69" x1="-2.65406e-05" y1="17.5098" x2="84.0332" y2="17.5098" gradientUnits="userSpaceOnUse">
<stop stop-color="#F4B011"/>
<stop offset="1" stop-color="#F6E54B" stop-opacity="0.920705"/>
</linearGradient>
</defs>
</svg>
