<svg width="100" height="36" viewBox="0 0 100 36" fill="none" xmlns="http://www.w3.org/2000/svg">
<path d="M17.5099 0.5H82.255C91.6492 0.5 99.2647 8.11556 99.2647 17.5098C99.2647 26.9041 91.6492 34.5197 82.255 34.5197H17.5099C8.11562 34.5197 0.5 26.9041 0.5 17.5098C0.5 8.11557 8.11562 0.5 17.5099 0.5Z" stroke="url(#paint0_linear_60_5)"/>
<path d="M11.7307 17.4276H13.8495C14.9166 17.4276 15.7248 17.2079 16.274 16.7684C16.839 16.329 17.1216 15.6698 17.1216 14.791C17.1216 13.8965 16.839 13.2766 16.274 12.9313C15.7248 12.586 14.9166 12.4134 13.8495 12.4134H11.7307V17.4276ZM17.3333 25.6196L14.0378 19.5933H11.7307V25.6196H9V10.2241H14.1319C14.9323 10.2241 15.6778 10.3026 16.3683 10.4595C17.0588 10.6165 17.6552 10.8754 18.1573 11.2364C18.6752 11.5817 19.0754 12.0446 19.3579 12.6252C19.6561 13.2059 19.8052 13.9278 19.8052 14.791C19.8052 15.968 19.5227 16.9175 18.9578 17.6394C18.4084 18.3613 17.6708 18.8792 16.7449 19.1931L20.4172 25.6196H17.3333ZM22.6066 19.8522C22.6066 18.9106 22.7713 18.0631 23.1009 17.3098C23.4461 16.5566 23.8933 15.921 24.4427 15.4031C24.9919 14.8695 25.6198 14.4693 26.326 14.2025C27.0479 13.92 27.7855 13.7787 28.5388 13.7787C29.4019 13.7787 30.163 13.92 30.8222 14.2025C31.497 14.4693 32.062 14.8459 32.517 15.3324C32.9722 15.8032 33.3174 16.3761 33.5528 17.0509C33.7883 17.7257 33.9061 18.4633 33.9061 19.2637C33.9061 19.5305 33.8903 19.7737 33.8591 19.9934C33.8432 20.2131 33.8196 20.3936 33.7883 20.5349H25.3844C25.5099 21.5863 25.9258 22.3946 26.632 22.9596C27.3382 23.5246 28.2171 23.807 29.2686 23.807C29.8649 23.807 30.422 23.7286 30.9399 23.5716C31.4578 23.399 31.9836 23.1636 32.5172 22.8654L33.4353 24.5603C32.8075 24.9527 32.1091 25.2744 31.3401 25.5255C30.5712 25.7766 29.763 25.9022 28.9156 25.9022C28.0367 25.9022 27.2127 25.7687 26.4437 25.5019C25.6747 25.2194 25.0077 24.8193 24.4428 24.3014C23.8778 23.7835 23.4305 23.1557 23.101 22.4181C22.7714 21.6648 22.6066 20.8096 22.6066 19.8522ZM31.4106 18.8164C31.4106 17.8905 31.1752 17.1686 30.7045 16.6507C30.2336 16.1328 29.5353 15.8739 28.6094 15.8739C28.217 15.8739 27.8403 15.9366 27.4794 16.0622C27.1184 16.1878 26.7889 16.3761 26.4907 16.6272C26.2082 16.8783 25.965 17.1843 25.761 17.5452C25.5569 17.9062 25.4235 18.3299 25.3607 18.8164H31.4106ZM36.9427 22.5123C36.9427 21.8688 37.0918 21.3039 37.39 20.8174C37.6882 20.3152 38.159 19.8914 38.8025 19.5462C39.4459 19.2009 40.2697 18.9184 41.2741 18.6987C42.2786 18.479 43.4949 18.3221 44.923 18.2279C44.8759 17.5688 44.6404 17.0274 44.2168 16.6036C43.7931 16.1799 43.1103 15.968 42.1687 15.968C41.5096 15.968 40.8583 16.0936 40.2148 16.3447C39.5871 16.5801 38.9751 16.8626 38.3787 17.1921L37.39 15.3795C38.0963 14.9715 38.9044 14.6027 39.8146 14.2731C40.7249 13.9435 41.6744 13.7787 42.6631 13.7787C44.2796 13.7787 45.5115 14.2103 46.3589 15.0735C47.2064 15.9209 47.6301 17.1529 47.6301 18.7693V25.6196H45.4173L45.2054 24.1837H45.1347C44.5226 24.6545 43.8399 25.0625 43.0866 25.4078C42.349 25.7374 41.5879 25.9022 40.8032 25.9022C40.2382 25.9022 39.7203 25.8158 39.2495 25.6432C38.7787 25.4862 38.3707 25.2587 38.0255 24.9605C37.6802 24.6623 37.4135 24.3092 37.2251 23.9012C37.0368 23.4775 36.9427 23.0145 36.9427 22.5123ZM39.5558 22.3005C39.5558 22.8183 39.7519 23.195 40.1443 23.4304C40.5523 23.6658 41.0466 23.7835 41.6273 23.7835C42.208 23.7835 42.7651 23.658 43.2987 23.4069C43.848 23.1401 44.3895 22.7948 44.923 22.3711V19.9228C43.8873 20.0013 43.0241 20.1112 42.3336 20.2524C41.643 20.378 41.0937 20.5427 40.6857 20.7467C40.2776 20.9508 39.9872 21.1862 39.8146 21.453C39.642 21.7041 39.5558 21.9866 39.5558 22.3005ZM50.6434 19.8522C50.6434 18.9106 50.7846 18.0631 51.0671 17.3098C51.3496 16.5566 51.7262 15.921 52.1971 15.4031C52.6836 14.8852 53.2328 14.485 53.8448 14.2025C54.4569 13.92 55.0925 13.7787 55.7517 13.7787C56.4422 13.7787 57.0306 13.9043 57.5172 14.1554C58.0194 14.3908 58.5059 14.7204 58.9767 15.1441L58.859 13.1902V9H61.5897V25.6196H59.3534L59.1415 24.2778H59.0707C58.6156 24.7329 58.0821 25.1175 57.47 25.4314C56.8736 25.7452 56.2458 25.9022 55.5867 25.9022C54.8491 25.9022 54.1743 25.7687 53.5622 25.5019C52.9502 25.2194 52.4244 24.8193 51.985 24.3014C51.5613 23.7835 51.2317 23.1557 50.9963 22.4181C50.7609 21.6648 50.6434 20.8096 50.6434 19.8522ZM53.4447 19.8287C53.4447 21.0842 53.688 22.0415 54.1744 22.7006C54.6609 23.3441 55.3514 23.6658 56.246 23.6658C57.2033 23.6658 58.0743 23.2028 58.859 22.2769V17.0744C58.451 16.6821 58.043 16.4075 57.635 16.2505C57.2269 16.0936 56.8109 16.0151 56.3872 16.0151C55.9792 16.0151 55.5948 16.1014 55.2339 16.2741C54.8886 16.4467 54.5825 16.6978 54.3157 17.0273C54.0489 17.3412 53.837 17.7335 53.6801 18.2044C53.5232 18.6752 53.4447 19.2166 53.4447 19.8287ZM64.65 14.0612H66.698L66.9099 15.5443H66.9807C67.2474 15.0421 67.5692 14.6262 67.9458 14.2967C68.3381 13.9514 68.8638 13.7788 69.5229 13.7788C70.6529 13.7788 71.3592 14.4222 71.6417 15.7091C71.9085 15.1598 72.2459 14.7047 72.6539 14.3437C73.0777 13.9671 73.6113 13.7788 74.2547 13.7788C75.0708 13.7788 75.6985 14.1005 76.138 14.7439C76.5931 15.3717 76.8206 16.2662 76.8206 17.4276V25.6196H74.2547V17.6394C74.2547 16.6193 73.9329 16.1093 73.2895 16.1093C72.9757 16.1093 72.701 16.227 72.4655 16.4624C72.2302 16.6978 72.0026 17.0587 71.7829 17.5452V25.6196H69.6643V17.6394C69.6643 16.6193 69.3347 16.1093 68.6755 16.1093C68.3616 16.1093 68.0949 16.227 67.8752 16.4624C67.6555 16.6978 67.4357 17.0587 67.216 17.5452V25.6196H64.6502L64.65 14.0612ZM79.1039 19.8522C79.1039 18.9106 79.2687 18.0631 79.5983 17.3098C79.9436 16.5566 80.3909 15.921 80.9401 15.4031C81.4894 14.8695 82.1171 14.4693 82.8233 14.2025C83.5452 13.92 84.2829 13.7788 85.0362 13.7788C85.8994 13.7788 86.6605 13.92 87.3195 14.2025C87.9944 14.4693 88.5594 14.8459 89.0145 15.3324C89.4696 15.8032 89.8148 16.3761 90.0503 17.0509C90.2857 17.7257 90.4034 18.4633 90.4034 19.2637C90.4034 19.5305 90.3878 19.7738 90.3566 19.9935C90.3406 20.2132 90.317 20.3937 90.2857 20.5349H81.8817C82.0072 21.5864 82.4232 22.3946 83.1294 22.9596C83.8356 23.5246 84.7144 23.807 85.7658 23.807C86.3622 23.807 86.9195 23.7286 87.4374 23.5716C87.9553 23.399 88.4809 23.1636 89.0145 22.8654L89.9326 24.5603C89.3049 24.9527 88.6065 25.2744 87.8375 25.5255C87.0685 25.7766 86.2603 25.9022 85.4128 25.9022C84.534 25.9022 83.71 25.7688 82.9411 25.502C82.172 25.2195 81.5051 24.8193 80.9401 24.3014C80.3752 23.7835 79.9279 23.1558 79.5983 22.4182C79.2687 21.6649 79.1039 20.8096 79.1039 19.8522ZM87.9081 18.8164C87.9081 17.8905 87.6728 17.1686 87.202 16.6507C86.7311 16.1328 86.0327 15.8739 85.1068 15.8739C84.7144 15.8739 84.3378 15.9366 83.9768 16.0622C83.6159 16.1878 83.2863 16.3761 82.9881 16.6272C82.7056 16.8783 82.4624 17.1843 82.2584 17.5452C82.0544 17.9062 81.921 18.3299 81.8582 18.8164H87.9081Z" fill="white"/>
<defs>
<linearGradient id="paint0_linear_60_5" x1="49.8824" y1="0" x2="49.8824" y2="35.0197" gradientUnits="userSpaceOnUse">
<stop stop-color="#F4B011"/>
<stop offset="1" stop-color="#F6E54B" stop-opacity="0.920705"/>
</linearGradient>
</defs>
</svg>
