<svg width="1004" height="521" viewBox="0 0 1004 521" fill="none" xmlns="http://www.w3.org/2000/svg">
<path opacity="0.330341" d="M893.726 3H110.274C51.0284 3 3 51.003 3 110.218V410.782C3 469.997 51.0284 518 110.274 518H893.726C952.972 518 1001 469.997 1001 410.782V110.218C1001 51.003 952.972 3 893.726 3Z" fill="black" stroke="url(#paint0_linear_61_14)" stroke-width="5" stroke-miterlimit="3.1" stroke-linecap="square"/>
<mask id="path-2-outside-1_61_14" maskUnits="userSpaceOnUse" x="200.062" y="140.72" width="532" height="167" fill="black">
<rect fill="white" x="200.062" y="140.72" width="532" height="167"/>
<path d="M265.794 255.197C270.074 255.197 272.782 254.411 273.918 252.839C275.141 251.266 275.752 248.602 275.752 244.845V219.424H267.366V216.541H305.104V219.424H299.994V256.377H298.029C296.456 254.193 294.229 253.101 291.346 253.101C290.123 253.101 286.454 253.887 280.339 255.459C274.311 257.032 269.157 257.818 264.876 257.818C250.637 257.818 239.586 253.974 231.724 246.287C223.949 238.599 220.062 227.068 220.062 211.693C220.062 196.231 224.123 184.306 232.248 175.92C240.459 167.534 251.466 163.34 265.269 163.34C270.598 163.34 275.927 164.039 281.256 165.437C286.672 166.748 289.817 167.403 290.69 167.403C291.564 167.403 292.219 167.228 292.656 166.879C293.093 166.442 293.573 165.743 294.097 164.782H295.539L296.587 193.217H294.228C289.948 184.743 285.624 178.104 281.256 173.299C276.976 168.407 272.171 165.961 266.842 165.961C253.476 165.961 246.793 179.021 246.793 205.141V215.493C246.793 228.597 248.409 238.512 251.642 245.238C254.961 251.878 259.679 255.197 265.794 255.197ZM354.505 197.803C351.273 197.803 348.434 199.9 345.988 204.093C343.542 208.286 342.319 213.266 342.319 219.031V254.149H351.623V256.508H310.739V254.149H317.946V196.493H310.739V194.134H342.319V206.714C343.455 202.258 345.638 198.851 348.871 196.493C352.103 194.047 355.772 192.824 359.878 192.824C363.984 192.824 367.303 194.003 369.837 196.362C372.458 198.633 373.768 201.909 373.768 206.19C373.768 210.383 372.807 213.615 370.885 215.886C368.963 218.158 365.993 219.293 361.975 219.293C358.043 219.293 355.117 217.983 353.195 215.362C351.36 212.741 351.142 209.116 352.54 204.486H357.257C359.441 200.031 358.524 197.803 354.505 197.803ZM417.272 230.693V219.555C417.272 211.082 416.792 204.923 415.831 201.079C414.957 197.148 412.861 195.182 409.541 195.182C407.619 195.182 406.047 195.75 404.824 196.886C403.688 197.934 402.858 199.725 402.334 202.258C401.548 206.19 401.155 212.174 401.155 220.211V230.431C401.155 239.953 401.417 245.675 401.941 247.597C402.552 249.519 403.164 251.091 403.775 252.314C404.736 254.411 406.615 255.459 409.41 255.459C412.817 255.459 415.045 253.494 416.093 249.563C416.879 246.767 417.272 240.477 417.272 230.693ZM409.148 257.818C398.228 257.818 389.973 255.023 384.382 249.432C378.791 243.841 375.996 235.847 375.996 225.452C375.996 214.969 378.966 206.932 384.906 201.341C390.934 195.663 399.364 192.824 410.196 192.824C421.028 192.824 429.109 195.445 434.438 200.686C439.767 205.84 442.431 213.746 442.431 224.404C442.431 246.68 431.337 257.818 409.148 257.818ZM522.756 256.508H492.88L491.439 246.942C490.042 250.436 487.945 253.144 485.149 255.066C482.441 256.901 478.379 257.818 472.963 257.818C459.422 257.818 452.652 250.524 452.652 235.935V196.493H445.314V194.134H477.025V239.08C477.025 244.321 477.375 247.772 478.073 249.432C478.86 251.091 480.345 251.921 482.529 251.921C484.8 251.921 486.809 250.567 488.556 247.859C490.303 245.151 491.177 241.395 491.177 236.59V196.493H485.149V194.134H515.55V254.149H522.756V256.508ZM573.206 221.259C573.206 212.261 572.769 206.233 571.896 203.176C571.022 200.031 569.318 198.458 566.785 198.458C564.252 198.458 561.98 200.118 559.971 203.438C557.962 206.67 556.957 211.038 556.957 216.541V240.521C556.957 244.278 557.7 247.466 559.185 250.087C560.67 252.708 562.854 254.018 565.737 254.018C568.62 254.018 570.585 252.096 571.633 248.252C572.681 244.409 573.206 237.682 573.206 228.073V221.259ZM556.695 194.134V204.486C560.102 196.711 566.13 192.824 574.778 192.824C582.291 192.824 588.1 195.532 592.206 200.948C596.399 206.364 598.496 214.576 598.496 225.583C598.496 236.59 596.225 244.714 591.682 249.956C587.227 255.197 580.5 257.818 571.502 257.818C567.309 257.818 564.164 257.294 562.068 256.246C559.971 255.197 558.268 253.581 556.957 251.397V285.336H573.861V287.694H525.377V285.336H532.584V196.493H525.639V194.134H556.695ZM621.689 185.093C617.059 185.093 613.739 183.913 611.73 181.555C609.808 179.196 608.847 176.27 608.847 172.775C608.847 169.281 609.896 166.398 611.993 164.127C614.177 161.855 617.453 160.72 621.821 160.72C626.188 160.72 629.508 161.768 631.779 163.865C634.05 165.874 635.186 168.8 635.186 172.644C635.186 176.401 634.094 179.414 631.91 181.686C629.727 183.957 626.319 185.093 621.689 185.093ZM601.903 194.134H634.007V254.149H641.345V256.508H602.427V254.149H609.634V196.493H601.903V194.134ZM678.428 257.818C667.159 257.818 658.685 254.935 653.007 249.17C647.416 243.317 644.621 235.236 644.621 224.928C644.621 214.532 647.765 206.583 654.055 201.079C660.432 195.576 668.513 192.824 678.297 192.824C698.127 192.824 707.65 202.783 706.863 222.7H669.911V227.811C669.911 236.372 671.003 242.836 673.187 247.204C675.37 251.572 679.171 253.756 684.587 253.756C694.72 253.756 701.36 248.34 704.505 237.507L706.863 237.9C705.204 244.19 702.189 249.082 697.821 252.577C693.541 256.071 687.076 257.818 678.428 257.818ZM670.042 220.079H683.539V213.659C683.539 206.583 683.102 201.778 682.228 199.245C681.442 196.624 679.782 195.313 677.249 195.313C674.803 195.313 672.969 196.711 671.746 199.507C670.61 202.215 670.042 206.932 670.042 213.659V220.079Z"/>
</mask>
<path d="M265.794 255.197C270.074 255.197 272.782 254.411 273.918 252.839C275.141 251.266 275.752 248.602 275.752 244.845V219.424H267.366V216.541H305.104V219.424H299.994V256.377H298.029C296.456 254.193 294.229 253.101 291.346 253.101C290.123 253.101 286.454 253.887 280.339 255.459C274.311 257.032 269.157 257.818 264.876 257.818C250.637 257.818 239.586 253.974 231.724 246.287C223.949 238.599 220.062 227.068 220.062 211.693C220.062 196.231 224.123 184.306 232.248 175.92C240.459 167.534 251.466 163.34 265.269 163.34C270.598 163.34 275.927 164.039 281.256 165.437C286.672 166.748 289.817 167.403 290.69 167.403C291.564 167.403 292.219 167.228 292.656 166.879C293.093 166.442 293.573 165.743 294.097 164.782H295.539L296.587 193.217H294.228C289.948 184.743 285.624 178.104 281.256 173.299C276.976 168.407 272.171 165.961 266.842 165.961C253.476 165.961 246.793 179.021 246.793 205.141V215.493C246.793 228.597 248.409 238.512 251.642 245.238C254.961 251.878 259.679 255.197 265.794 255.197ZM354.505 197.803C351.273 197.803 348.434 199.9 345.988 204.093C343.542 208.286 342.319 213.266 342.319 219.031V254.149H351.623V256.508H310.739V254.149H317.946V196.493H310.739V194.134H342.319V206.714C343.455 202.258 345.638 198.851 348.871 196.493C352.103 194.047 355.772 192.824 359.878 192.824C363.984 192.824 367.303 194.003 369.837 196.362C372.458 198.633 373.768 201.909 373.768 206.19C373.768 210.383 372.807 213.615 370.885 215.886C368.963 218.158 365.993 219.293 361.975 219.293C358.043 219.293 355.117 217.983 353.195 215.362C351.36 212.741 351.142 209.116 352.54 204.486H357.257C359.441 200.031 358.524 197.803 354.505 197.803ZM417.272 230.693V219.555C417.272 211.082 416.792 204.923 415.831 201.079C414.957 197.148 412.861 195.182 409.541 195.182C407.619 195.182 406.047 195.75 404.824 196.886C403.688 197.934 402.858 199.725 402.334 202.258C401.548 206.19 401.155 212.174 401.155 220.211V230.431C401.155 239.953 401.417 245.675 401.941 247.597C402.552 249.519 403.164 251.091 403.775 252.314C404.736 254.411 406.615 255.459 409.41 255.459C412.817 255.459 415.045 253.494 416.093 249.563C416.879 246.767 417.272 240.477 417.272 230.693ZM409.148 257.818C398.228 257.818 389.973 255.023 384.382 249.432C378.791 243.841 375.996 235.847 375.996 225.452C375.996 214.969 378.966 206.932 384.906 201.341C390.934 195.663 399.364 192.824 410.196 192.824C421.028 192.824 429.109 195.445 434.438 200.686C439.767 205.84 442.431 213.746 442.431 224.404C442.431 246.68 431.337 257.818 409.148 257.818ZM522.756 256.508H492.88L491.439 246.942C490.042 250.436 487.945 253.144 485.149 255.066C482.441 256.901 478.379 257.818 472.963 257.818C459.422 257.818 452.652 250.524 452.652 235.935V196.493H445.314V194.134H477.025V239.08C477.025 244.321 477.375 247.772 478.073 249.432C478.86 251.091 480.345 251.921 482.529 251.921C484.8 251.921 486.809 250.567 488.556 247.859C490.303 245.151 491.177 241.395 491.177 236.59V196.493H485.149V194.134H515.55V254.149H522.756V256.508ZM573.206 221.259C573.206 212.261 572.769 206.233 571.896 203.176C571.022 200.031 569.318 198.458 566.785 198.458C564.252 198.458 561.98 200.118 559.971 203.438C557.962 206.67 556.957 211.038 556.957 216.541V240.521C556.957 244.278 557.7 247.466 559.185 250.087C560.67 252.708 562.854 254.018 565.737 254.018C568.62 254.018 570.585 252.096 571.633 248.252C572.681 244.409 573.206 237.682 573.206 228.073V221.259ZM556.695 194.134V204.486C560.102 196.711 566.13 192.824 574.778 192.824C582.291 192.824 588.1 195.532 592.206 200.948C596.399 206.364 598.496 214.576 598.496 225.583C598.496 236.59 596.225 244.714 591.682 249.956C587.227 255.197 580.5 257.818 571.502 257.818C567.309 257.818 564.164 257.294 562.068 256.246C559.971 255.197 558.268 253.581 556.957 251.397V285.336H573.861V287.694H525.377V285.336H532.584V196.493H525.639V194.134H556.695ZM621.689 185.093C617.059 185.093 613.739 183.913 611.73 181.555C609.808 179.196 608.847 176.27 608.847 172.775C608.847 169.281 609.896 166.398 611.993 164.127C614.177 161.855 617.453 160.72 621.821 160.72C626.188 160.72 629.508 161.768 631.779 163.865C634.05 165.874 635.186 168.8 635.186 172.644C635.186 176.401 634.094 179.414 631.91 181.686C629.727 183.957 626.319 185.093 621.689 185.093ZM601.903 194.134H634.007V254.149H641.345V256.508H602.427V254.149H609.634V196.493H601.903V194.134ZM678.428 257.818C667.159 257.818 658.685 254.935 653.007 249.17C647.416 243.317 644.621 235.236 644.621 224.928C644.621 214.532 647.765 206.583 654.055 201.079C660.432 195.576 668.513 192.824 678.297 192.824C698.127 192.824 707.65 202.783 706.863 222.7H669.911V227.811C669.911 236.372 671.003 242.836 673.187 247.204C675.37 251.572 679.171 253.756 684.587 253.756C694.72 253.756 701.36 248.34 704.505 237.507L706.863 237.9C705.204 244.19 702.189 249.082 697.821 252.577C693.541 256.071 687.076 257.818 678.428 257.818ZM670.042 220.079H683.539V213.659C683.539 206.583 683.102 201.778 682.228 199.245C681.442 196.624 679.782 195.313 677.249 195.313C674.803 195.313 672.969 196.711 671.746 199.507C670.61 202.215 670.042 206.932 670.042 213.659V220.079Z" fill="url(#paint1_linear_61_14)"/>
<path d="M265.794 255.197C270.074 255.197 272.782 254.411 273.918 252.839C275.141 251.266 275.752 248.602 275.752 244.845V219.424H267.366V216.541H305.104V219.424H299.994V256.377H298.029C296.456 254.193 294.229 253.101 291.346 253.101C290.123 253.101 286.454 253.887 280.339 255.459C274.311 257.032 269.157 257.818 264.876 257.818C250.637 257.818 239.586 253.974 231.724 246.287C223.949 238.599 220.062 227.068 220.062 211.693C220.062 196.231 224.123 184.306 232.248 175.92C240.459 167.534 251.466 163.34 265.269 163.34C270.598 163.34 275.927 164.039 281.256 165.437C286.672 166.748 289.817 167.403 290.69 167.403C291.564 167.403 292.219 167.228 292.656 166.879C293.093 166.442 293.573 165.743 294.097 164.782H295.539L296.587 193.217H294.228C289.948 184.743 285.624 178.104 281.256 173.299C276.976 168.407 272.171 165.961 266.842 165.961C253.476 165.961 246.793 179.021 246.793 205.141V215.493C246.793 228.597 248.409 238.512 251.642 245.238C254.961 251.878 259.679 255.197 265.794 255.197ZM354.505 197.803C351.273 197.803 348.434 199.9 345.988 204.093C343.542 208.286 342.319 213.266 342.319 219.031V254.149H351.623V256.508H310.739V254.149H317.946V196.493H310.739V194.134H342.319V206.714C343.455 202.258 345.638 198.851 348.871 196.493C352.103 194.047 355.772 192.824 359.878 192.824C363.984 192.824 367.303 194.003 369.837 196.362C372.458 198.633 373.768 201.909 373.768 206.19C373.768 210.383 372.807 213.615 370.885 215.886C368.963 218.158 365.993 219.293 361.975 219.293C358.043 219.293 355.117 217.983 353.195 215.362C351.36 212.741 351.142 209.116 352.54 204.486H357.257C359.441 200.031 358.524 197.803 354.505 197.803ZM417.272 230.693V219.555C417.272 211.082 416.792 204.923 415.831 201.079C414.957 197.148 412.861 195.182 409.541 195.182C407.619 195.182 406.047 195.75 404.824 196.886C403.688 197.934 402.858 199.725 402.334 202.258C401.548 206.19 401.155 212.174 401.155 220.211V230.431C401.155 239.953 401.417 245.675 401.941 247.597C402.552 249.519 403.164 251.091 403.775 252.314C404.736 254.411 406.615 255.459 409.41 255.459C412.817 255.459 415.045 253.494 416.093 249.563C416.879 246.767 417.272 240.477 417.272 230.693ZM409.148 257.818C398.228 257.818 389.973 255.023 384.382 249.432C378.791 243.841 375.996 235.847 375.996 225.452C375.996 214.969 378.966 206.932 384.906 201.341C390.934 195.663 399.364 192.824 410.196 192.824C421.028 192.824 429.109 195.445 434.438 200.686C439.767 205.84 442.431 213.746 442.431 224.404C442.431 246.68 431.337 257.818 409.148 257.818ZM522.756 256.508H492.88L491.439 246.942C490.042 250.436 487.945 253.144 485.149 255.066C482.441 256.901 478.379 257.818 472.963 257.818C459.422 257.818 452.652 250.524 452.652 235.935V196.493H445.314V194.134H477.025V239.08C477.025 244.321 477.375 247.772 478.073 249.432C478.86 251.091 480.345 251.921 482.529 251.921C484.8 251.921 486.809 250.567 488.556 247.859C490.303 245.151 491.177 241.395 491.177 236.59V196.493H485.149V194.134H515.55V254.149H522.756V256.508ZM573.206 221.259C573.206 212.261 572.769 206.233 571.896 203.176C571.022 200.031 569.318 198.458 566.785 198.458C564.252 198.458 561.98 200.118 559.971 203.438C557.962 206.67 556.957 211.038 556.957 216.541V240.521C556.957 244.278 557.7 247.466 559.185 250.087C560.67 252.708 562.854 254.018 565.737 254.018C568.62 254.018 570.585 252.096 571.633 248.252C572.681 244.409 573.206 237.682 573.206 228.073V221.259ZM556.695 194.134V204.486C560.102 196.711 566.13 192.824 574.778 192.824C582.291 192.824 588.1 195.532 592.206 200.948C596.399 206.364 598.496 214.576 598.496 225.583C598.496 236.59 596.225 244.714 591.682 249.956C587.227 255.197 580.5 257.818 571.502 257.818C567.309 257.818 564.164 257.294 562.068 256.246C559.971 255.197 558.268 253.581 556.957 251.397V285.336H573.861V287.694H525.377V285.336H532.584V196.493H525.639V194.134H556.695ZM621.689 185.093C617.059 185.093 613.739 183.913 611.73 181.555C609.808 179.196 608.847 176.27 608.847 172.775C608.847 169.281 609.896 166.398 611.993 164.127C614.177 161.855 617.453 160.72 621.821 160.72C626.188 160.72 629.508 161.768 631.779 163.865C634.05 165.874 635.186 168.8 635.186 172.644C635.186 176.401 634.094 179.414 631.91 181.686C629.727 183.957 626.319 185.093 621.689 185.093ZM601.903 194.134H634.007V254.149H641.345V256.508H602.427V254.149H609.634V196.493H601.903V194.134ZM678.428 257.818C667.159 257.818 658.685 254.935 653.007 249.17C647.416 243.317 644.621 235.236 644.621 224.928C644.621 214.532 647.765 206.583 654.055 201.079C660.432 195.576 668.513 192.824 678.297 192.824C698.127 192.824 707.65 202.783 706.863 222.7H669.911V227.811C669.911 236.372 671.003 242.836 673.187 247.204C675.37 251.572 679.171 253.756 684.587 253.756C694.72 253.756 701.36 248.34 704.505 237.507L706.863 237.9C705.204 244.19 702.189 249.082 697.821 252.577C693.541 256.071 687.076 257.818 678.428 257.818ZM670.042 220.079H683.539V213.659C683.539 206.583 683.102 201.778 682.228 199.245C681.442 196.624 679.782 195.313 677.249 195.313C674.803 195.313 672.969 196.711 671.746 199.507C670.61 202.215 670.042 206.932 670.042 213.659V220.079Z" stroke="black" stroke-opacity="0.01" stroke-width="40" mask="url(#path-2-outside-1_61_14)"/>
<mask id="path-3-outside-2_61_14" maskUnits="userSpaceOnUse" x="274.797" y="240.534" width="530" height="140" fill="black">
<rect fill="white" x="274.797" y="240.534" width="530" height="140"/>
<path d="M374.419 267.086L375.729 299.976H373.239C369.396 288.358 365.989 280.452 363.019 276.259C360.049 271.978 355.768 269.838 350.177 269.838H348.605V356.06H359.743V358.812H311.914V356.06H323.053V269.838H321.349C315.758 269.838 311.434 272.065 308.376 276.521C305.319 280.889 301.956 288.707 298.286 299.976H295.797L297.107 267.086H374.419ZM423.034 300.107C419.801 300.107 416.962 302.204 414.516 306.397C412.07 310.59 410.847 315.57 410.847 321.335V356.453H420.151V358.812H379.267V356.453H386.474V298.797H379.267V296.438H410.847V309.018C411.983 304.562 414.167 301.155 417.399 298.797C420.631 296.351 424.3 295.128 428.406 295.128C432.512 295.128 435.832 296.307 438.365 298.666C440.986 300.937 442.296 304.213 442.296 308.494C442.296 312.687 441.335 315.919 439.413 318.19C437.491 320.462 434.521 321.597 430.502 321.597C426.571 321.597 423.645 320.287 421.723 317.666C419.889 315.045 419.67 311.42 421.068 306.79H425.785C427.969 302.335 427.052 300.107 423.034 300.107ZM473.614 328.018H477.414V317.928C477.414 309.629 476.934 304.082 475.973 301.287C475.099 298.404 473.352 296.962 470.731 296.962C469.159 296.962 467.717 297.399 466.407 298.273C465.184 299.059 464.573 300.195 464.573 301.68C464.573 303.077 464.834 304.519 465.358 306.004H468.634C469.333 307.838 469.683 310.066 469.683 312.687C469.683 315.22 468.591 317.448 466.407 319.37C464.223 321.204 461.471 322.121 458.151 322.121C450.639 322.121 446.883 318.496 446.883 311.245C446.883 300.5 456.011 295.128 474.269 295.128C484.665 295.128 491.828 296.919 495.759 300.5C499.777 303.995 501.787 310.459 501.787 319.894V346.494C501.787 351.037 503.053 353.308 505.587 353.308C508.557 353.308 510.304 348.809 510.828 339.811L512.794 339.942C512.445 347.63 511.003 352.915 508.47 355.798C505.936 358.681 501.787 360.122 496.021 360.122C485.538 360.122 479.51 356.89 477.938 350.425C476.802 353.745 475.099 356.191 472.828 357.763C470.556 359.336 467.237 360.122 462.869 360.122C449.94 360.122 443.476 354.837 443.476 344.267C443.476 338.064 445.921 333.827 450.814 331.556C455.793 329.197 463.393 328.018 473.614 328.018ZM468.373 344.136C468.373 348.678 468.591 351.605 469.028 352.915C469.552 354.225 470.469 354.881 471.78 354.881C473.177 354.881 474.444 353.789 475.579 351.605C476.802 349.333 477.414 346.232 477.414 342.301V330.115H476.497C471.081 330.115 468.373 334.089 468.373 342.039V344.136ZM550.795 297.486C546.951 297.486 544.199 299.583 542.539 303.776C540.88 307.969 540.05 314.914 540.05 324.611V331.425C540.05 340.073 541.011 346.276 542.933 350.032C544.854 353.789 548.392 355.667 553.546 355.667C558.701 355.667 562.806 353.92 565.864 350.425C568.921 346.931 570.887 342.956 571.761 338.501L574.119 338.763C572.46 346.276 569.402 351.692 564.947 355.012C560.404 358.419 554.158 360.122 546.209 360.122C536.075 360.122 528.3 357.414 522.884 351.998C517.468 346.494 514.759 338.501 514.759 328.018C514.759 317.448 517.817 309.324 523.932 303.645C530.134 297.967 538.739 295.128 549.746 295.128C557.521 295.128 563.461 296.657 567.567 299.714C571.673 302.684 573.726 306.441 573.726 310.983C573.726 315.526 572.722 318.846 570.712 320.942C568.791 323.039 566.082 324.087 562.588 324.087C559.181 324.087 556.429 323.17 554.332 321.335C552.236 319.501 551.188 316.793 551.188 313.211C551.188 311.638 551.406 310.066 551.843 308.494H556.167C556.778 306.746 557.084 305.174 557.084 303.776C557.084 299.583 554.988 297.486 550.795 297.486ZM618.934 358.812V356.453H624.961L610.154 326.052L607.664 326.708V356.453H613.692V358.812H576.085V356.453H583.292V262.893H575.56V260.534H607.664V324.087L609.761 323.301L639.244 298.797H626.927V296.438H652.741V298.797H643.569L627.975 312.032L650.645 356.453H655.362V358.812H618.934ZM688.514 360.122C677.245 360.122 668.771 357.239 663.093 351.474C657.502 345.621 654.707 337.54 654.707 327.232C654.707 316.836 657.852 308.887 664.141 303.383C670.519 297.88 678.599 295.128 688.383 295.128C708.214 295.128 717.735 305.087 716.949 325.004H679.997V330.115C679.997 338.676 681.089 345.14 683.273 349.508C685.457 353.876 689.257 356.06 694.673 356.06C704.807 356.06 711.446 350.644 714.591 339.811L716.949 340.204C715.289 346.494 712.276 351.386 707.908 354.881C703.627 358.375 697.163 360.122 688.514 360.122ZM680.128 322.384H693.625V315.963C693.625 308.887 693.188 304.082 692.314 301.549C691.528 298.928 689.868 297.617 687.335 297.617C684.889 297.617 683.054 299.015 681.831 301.811C680.696 304.519 680.128 309.236 680.128 315.963V322.384ZM765.433 300.107C762.201 300.107 759.362 302.204 756.916 306.397C754.47 310.59 753.247 315.57 753.247 321.335V356.453H762.55V358.812H721.667V356.453H728.874V298.797H721.667V296.438H753.247V309.018C754.382 304.562 756.566 301.155 759.799 298.797C763.031 296.351 766.7 295.128 770.806 295.128C774.912 295.128 778.231 296.307 780.764 298.666C783.385 300.937 784.695 304.213 784.695 308.494C784.695 312.687 783.734 315.919 781.812 318.19C779.891 320.462 776.921 321.597 772.902 321.597C768.971 321.597 766.044 320.287 764.122 317.666C762.288 315.045 762.07 311.42 763.467 306.79H768.185C770.369 302.335 769.451 300.107 765.433 300.107Z"/>
</mask>
<path d="M374.419 267.086L375.729 299.976H373.239C369.396 288.358 365.989 280.452 363.019 276.259C360.049 271.978 355.768 269.838 350.177 269.838H348.605V356.06H359.743V358.812H311.914V356.06H323.053V269.838H321.349C315.758 269.838 311.434 272.065 308.376 276.521C305.319 280.889 301.956 288.707 298.286 299.976H295.797L297.107 267.086H374.419ZM423.034 300.107C419.801 300.107 416.962 302.204 414.516 306.397C412.07 310.59 410.847 315.57 410.847 321.335V356.453H420.151V358.812H379.267V356.453H386.474V298.797H379.267V296.438H410.847V309.018C411.983 304.562 414.167 301.155 417.399 298.797C420.631 296.351 424.3 295.128 428.406 295.128C432.512 295.128 435.832 296.307 438.365 298.666C440.986 300.937 442.296 304.213 442.296 308.494C442.296 312.687 441.335 315.919 439.413 318.19C437.491 320.462 434.521 321.597 430.502 321.597C426.571 321.597 423.645 320.287 421.723 317.666C419.889 315.045 419.67 311.42 421.068 306.79H425.785C427.969 302.335 427.052 300.107 423.034 300.107ZM473.614 328.018H477.414V317.928C477.414 309.629 476.934 304.082 475.973 301.287C475.099 298.404 473.352 296.962 470.731 296.962C469.159 296.962 467.717 297.399 466.407 298.273C465.184 299.059 464.573 300.195 464.573 301.68C464.573 303.077 464.834 304.519 465.358 306.004H468.634C469.333 307.838 469.683 310.066 469.683 312.687C469.683 315.22 468.591 317.448 466.407 319.37C464.223 321.204 461.471 322.121 458.151 322.121C450.639 322.121 446.883 318.496 446.883 311.245C446.883 300.5 456.011 295.128 474.269 295.128C484.665 295.128 491.828 296.919 495.759 300.5C499.777 303.995 501.787 310.459 501.787 319.894V346.494C501.787 351.037 503.053 353.308 505.587 353.308C508.557 353.308 510.304 348.809 510.828 339.811L512.794 339.942C512.445 347.63 511.003 352.915 508.47 355.798C505.936 358.681 501.787 360.122 496.021 360.122C485.538 360.122 479.51 356.89 477.938 350.425C476.802 353.745 475.099 356.191 472.828 357.763C470.556 359.336 467.237 360.122 462.869 360.122C449.94 360.122 443.476 354.837 443.476 344.267C443.476 338.064 445.921 333.827 450.814 331.556C455.793 329.197 463.393 328.018 473.614 328.018ZM468.373 344.136C468.373 348.678 468.591 351.605 469.028 352.915C469.552 354.225 470.469 354.881 471.78 354.881C473.177 354.881 474.444 353.789 475.579 351.605C476.802 349.333 477.414 346.232 477.414 342.301V330.115H476.497C471.081 330.115 468.373 334.089 468.373 342.039V344.136ZM550.795 297.486C546.951 297.486 544.199 299.583 542.539 303.776C540.88 307.969 540.05 314.914 540.05 324.611V331.425C540.05 340.073 541.011 346.276 542.933 350.032C544.854 353.789 548.392 355.667 553.546 355.667C558.701 355.667 562.806 353.92 565.864 350.425C568.921 346.931 570.887 342.956 571.761 338.501L574.119 338.763C572.46 346.276 569.402 351.692 564.947 355.012C560.404 358.419 554.158 360.122 546.209 360.122C536.075 360.122 528.3 357.414 522.884 351.998C517.468 346.494 514.759 338.501 514.759 328.018C514.759 317.448 517.817 309.324 523.932 303.645C530.134 297.967 538.739 295.128 549.746 295.128C557.521 295.128 563.461 296.657 567.567 299.714C571.673 302.684 573.726 306.441 573.726 310.983C573.726 315.526 572.722 318.846 570.712 320.942C568.791 323.039 566.082 324.087 562.588 324.087C559.181 324.087 556.429 323.17 554.332 321.335C552.236 319.501 551.188 316.793 551.188 313.211C551.188 311.638 551.406 310.066 551.843 308.494H556.167C556.778 306.746 557.084 305.174 557.084 303.776C557.084 299.583 554.988 297.486 550.795 297.486ZM618.934 358.812V356.453H624.961L610.154 326.052L607.664 326.708V356.453H613.692V358.812H576.085V356.453H583.292V262.893H575.56V260.534H607.664V324.087L609.761 323.301L639.244 298.797H626.927V296.438H652.741V298.797H643.569L627.975 312.032L650.645 356.453H655.362V358.812H618.934ZM688.514 360.122C677.245 360.122 668.771 357.239 663.093 351.474C657.502 345.621 654.707 337.54 654.707 327.232C654.707 316.836 657.852 308.887 664.141 303.383C670.519 297.88 678.599 295.128 688.383 295.128C708.214 295.128 717.735 305.087 716.949 325.004H679.997V330.115C679.997 338.676 681.089 345.14 683.273 349.508C685.457 353.876 689.257 356.06 694.673 356.06C704.807 356.06 711.446 350.644 714.591 339.811L716.949 340.204C715.289 346.494 712.276 351.386 707.908 354.881C703.627 358.375 697.163 360.122 688.514 360.122ZM680.128 322.384H693.625V315.963C693.625 308.887 693.188 304.082 692.314 301.549C691.528 298.928 689.868 297.617 687.335 297.617C684.889 297.617 683.054 299.015 681.831 301.811C680.696 304.519 680.128 309.236 680.128 315.963V322.384ZM765.433 300.107C762.201 300.107 759.362 302.204 756.916 306.397C754.47 310.59 753.247 315.57 753.247 321.335V356.453H762.55V358.812H721.667V356.453H728.874V298.797H721.667V296.438H753.247V309.018C754.382 304.562 756.566 301.155 759.799 298.797C763.031 296.351 766.7 295.128 770.806 295.128C774.912 295.128 778.231 296.307 780.764 298.666C783.385 300.937 784.695 304.213 784.695 308.494C784.695 312.687 783.734 315.919 781.812 318.19C779.891 320.462 776.921 321.597 772.902 321.597C768.971 321.597 766.044 320.287 764.122 317.666C762.288 315.045 762.07 311.42 763.467 306.79H768.185C770.369 302.335 769.451 300.107 765.433 300.107Z" fill="url(#paint2_linear_61_14)"/>
<path d="M374.419 267.086L375.729 299.976H373.239C369.396 288.358 365.989 280.452 363.019 276.259C360.049 271.978 355.768 269.838 350.177 269.838H348.605V356.06H359.743V358.812H311.914V356.06H323.053V269.838H321.349C315.758 269.838 311.434 272.065 308.376 276.521C305.319 280.889 301.956 288.707 298.286 299.976H295.797L297.107 267.086H374.419ZM423.034 300.107C419.801 300.107 416.962 302.204 414.516 306.397C412.07 310.59 410.847 315.57 410.847 321.335V356.453H420.151V358.812H379.267V356.453H386.474V298.797H379.267V296.438H410.847V309.018C411.983 304.562 414.167 301.155 417.399 298.797C420.631 296.351 424.3 295.128 428.406 295.128C432.512 295.128 435.832 296.307 438.365 298.666C440.986 300.937 442.296 304.213 442.296 308.494C442.296 312.687 441.335 315.919 439.413 318.19C437.491 320.462 434.521 321.597 430.502 321.597C426.571 321.597 423.645 320.287 421.723 317.666C419.889 315.045 419.67 311.42 421.068 306.79H425.785C427.969 302.335 427.052 300.107 423.034 300.107ZM473.614 328.018H477.414V317.928C477.414 309.629 476.934 304.082 475.973 301.287C475.099 298.404 473.352 296.962 470.731 296.962C469.159 296.962 467.717 297.399 466.407 298.273C465.184 299.059 464.573 300.195 464.573 301.68C464.573 303.077 464.834 304.519 465.358 306.004H468.634C469.333 307.838 469.683 310.066 469.683 312.687C469.683 315.22 468.591 317.448 466.407 319.37C464.223 321.204 461.471 322.121 458.151 322.121C450.639 322.121 446.883 318.496 446.883 311.245C446.883 300.5 456.011 295.128 474.269 295.128C484.665 295.128 491.828 296.919 495.759 300.5C499.777 303.995 501.787 310.459 501.787 319.894V346.494C501.787 351.037 503.053 353.308 505.587 353.308C508.557 353.308 510.304 348.809 510.828 339.811L512.794 339.942C512.445 347.63 511.003 352.915 508.47 355.798C505.936 358.681 501.787 360.122 496.021 360.122C485.538 360.122 479.51 356.89 477.938 350.425C476.802 353.745 475.099 356.191 472.828 357.763C470.556 359.336 467.237 360.122 462.869 360.122C449.94 360.122 443.476 354.837 443.476 344.267C443.476 338.064 445.921 333.827 450.814 331.556C455.793 329.197 463.393 328.018 473.614 328.018ZM468.373 344.136C468.373 348.678 468.591 351.605 469.028 352.915C469.552 354.225 470.469 354.881 471.78 354.881C473.177 354.881 474.444 353.789 475.579 351.605C476.802 349.333 477.414 346.232 477.414 342.301V330.115H476.497C471.081 330.115 468.373 334.089 468.373 342.039V344.136ZM550.795 297.486C546.951 297.486 544.199 299.583 542.539 303.776C540.88 307.969 540.05 314.914 540.05 324.611V331.425C540.05 340.073 541.011 346.276 542.933 350.032C544.854 353.789 548.392 355.667 553.546 355.667C558.701 355.667 562.806 353.92 565.864 350.425C568.921 346.931 570.887 342.956 571.761 338.501L574.119 338.763C572.46 346.276 569.402 351.692 564.947 355.012C560.404 358.419 554.158 360.122 546.209 360.122C536.075 360.122 528.3 357.414 522.884 351.998C517.468 346.494 514.759 338.501 514.759 328.018C514.759 317.448 517.817 309.324 523.932 303.645C530.134 297.967 538.739 295.128 549.746 295.128C557.521 295.128 563.461 296.657 567.567 299.714C571.673 302.684 573.726 306.441 573.726 310.983C573.726 315.526 572.722 318.846 570.712 320.942C568.791 323.039 566.082 324.087 562.588 324.087C559.181 324.087 556.429 323.17 554.332 321.335C552.236 319.501 551.188 316.793 551.188 313.211C551.188 311.638 551.406 310.066 551.843 308.494H556.167C556.778 306.746 557.084 305.174 557.084 303.776C557.084 299.583 554.988 297.486 550.795 297.486ZM618.934 358.812V356.453H624.961L610.154 326.052L607.664 326.708V356.453H613.692V358.812H576.085V356.453H583.292V262.893H575.56V260.534H607.664V324.087L609.761 323.301L639.244 298.797H626.927V296.438H652.741V298.797H643.569L627.975 312.032L650.645 356.453H655.362V358.812H618.934ZM688.514 360.122C677.245 360.122 668.771 357.239 663.093 351.474C657.502 345.621 654.707 337.54 654.707 327.232C654.707 316.836 657.852 308.887 664.141 303.383C670.519 297.88 678.599 295.128 688.383 295.128C708.214 295.128 717.735 305.087 716.949 325.004H679.997V330.115C679.997 338.676 681.089 345.14 683.273 349.508C685.457 353.876 689.257 356.06 694.673 356.06C704.807 356.06 711.446 350.644 714.591 339.811L716.949 340.204C715.289 346.494 712.276 351.386 707.908 354.881C703.627 358.375 697.163 360.122 688.514 360.122ZM680.128 322.384H693.625V315.963C693.625 308.887 693.188 304.082 692.314 301.549C691.528 298.928 689.868 297.617 687.335 297.617C684.889 297.617 683.054 299.015 681.831 301.811C680.696 304.519 680.128 309.236 680.128 315.963V322.384ZM765.433 300.107C762.201 300.107 759.362 302.204 756.916 306.397C754.47 310.59 753.247 315.57 753.247 321.335V356.453H762.55V358.812H721.667V356.453H728.874V298.797H721.667V296.438H753.247V309.018C754.382 304.562 756.566 301.155 759.799 298.797C763.031 296.351 766.7 295.128 770.806 295.128C774.912 295.128 778.231 296.307 780.764 298.666C783.385 300.937 784.695 304.213 784.695 308.494C784.695 312.687 783.734 315.919 781.812 318.19C779.891 320.462 776.921 321.597 772.902 321.597C768.971 321.597 766.044 320.287 764.122 317.666C762.288 315.045 762.07 311.42 763.467 306.79H768.185C770.369 302.335 769.451 300.107 765.433 300.107Z" stroke="black" stroke-opacity="0.01" stroke-width="40" mask="url(#path-3-outside-2_61_14)"/>
<defs>
<linearGradient id="paint0_linear_61_14" x1="2.99986" y1="260.5" x2="690.927" y2="262.039" gradientUnits="userSpaceOnUse">
<stop stop-color="#F4B011"/>
<stop offset="1" stop-color="#F6E54B"/>
</linearGradient>
<linearGradient id="paint1_linear_61_14" x1="220.062" y1="224.207" x2="706.909" y2="224.207" gradientUnits="userSpaceOnUse">
<stop stop-color="#F4B011"/>
<stop offset="1" stop-color="#F6E54B"/>
</linearGradient>
<linearGradient id="paint2_linear_61_14" x1="295.798" y1="310.328" x2="784.696" y2="310.328" gradientUnits="userSpaceOnUse">
<stop stop-color="#F6E54B" stop-opacity="0.920705"/>
<stop offset="1" stop-color="#F4B011"/>
</linearGradient>
</defs>
</svg>
